<svg width="1440" height="761" viewBox="0 0 1440 761" fill="none" xmlns="http://www.w3.org/2000/svg">
<path d="M0 210.5V760.5H719.25H1438.5V179.5H1264.5V342H1191V31.5H1090.5H878.5V255.5H804.5V349H762.5V223H628.5V429.5H604.5V123.5H417.5V395H345.5V123.5H157.5V269H117.5V310.5H74.5V210.5H0Z" fill="black"/>
<path d="M0 349H75.1043M0 349V211.5H75.1043V310.5M0 349V371.5M219.305 504.5H345.981M219.305 504.5V760M219.305 504.5V371.5M503.199 504.5V429.5H604.84M503.199 504.5H417.58M503.199 504.5V593.5M805.118 429.5V349M805.118 429.5V593.5M805.118 429.5H724.5M1102.53 341.5V255H879.221M1102.53 341.5H1191.66M1102.53 341.5V472M1440 341.5H1264.26M1440 341.5V180H1264.26V341.5M1440 341.5V472M1440 760V499M0 760V371.5M75.1043 349V310.5M75.1043 349H117.663M345.981 504.5V395.5M345.981 504.5H417.58M158.22 349H219.305L236.5 371.5H219.305M158.22 349H117.663M158.22 349V298.25M75.1043 310.5H117.663M117.663 310.5V349M117.663 310.5V298.25M158.22 269V123.5H345.981V395.5M158.22 269H117.663V286V298.25M158.22 269V286V298.25M604.84 429.5V123.5H417.58V395.5M604.84 429.5H628.373M417.58 395.5H345.981M417.58 395.5V504.5M805.118 349V255H879.221M805.118 349H762.559V222.5H628.373V429.5M628.373 429.5H724.5M879.221 255V32H1090.5M1191.66 341.5H1264.26M1191.66 341.5V134M219.305 371.5H0M503.199 760V593.5M117.663 298.25H158.22M805.118 760V593.5M503.199 593.5H588M805.118 593.5H724.5M724.5 593.5V429.5M724.5 593.5H588M588 593.5V760M1102.53 760V629.5V499M1090.5 32H1191.66V134M1090.5 32V134H1191.66M1102.53 472H1440M1102.53 472L1090.5 499H1102.53M1440 472V499M1440 499H1102.53" stroke="white" stroke-width="6"/>
<path d="M1104 634H1440" stroke="white" stroke-width="2"/>
<path d="M54.75 227H64.5V236.75M54.75 227H45V236.75M54.75 227V246.5M54.75 246.5H45V236.75M54.75 246.5H64.5V236.75M45 236.75H64.5" stroke="white"/>
<path d="M511.5 234H533V255M511.5 234H490V255M511.5 234V276M511.5 276H490V255M511.5 276H533V255M490 255H533" stroke="white" stroke-width="2"/>
<path d="M511.5 375H533V396M511.5 375H490V396M511.5 375V417M511.5 417H490V396M511.5 417H533V396M490 396H533" stroke="white" stroke-width="2"/>
<path d="M765.5 458H787V479M765.5 458H744V479M765.5 458V500M765.5 500H744V479M765.5 500H787V479M744 479H787" stroke="white" stroke-width="2"/>
<path d="M54.75 259H64.5V268.75M54.75 259H45V268.75M54.75 259V278.5M54.75 278.5H45V268.75M54.75 278.5H64.5V268.75M45 268.75H64.5" stroke="white"/>
<path d="M54.75 291H64.5V300.75M54.75 291H45V300.75M54.75 291V310.5M54.75 310.5H45V300.75M54.75 310.5H64.5V300.75M45 300.75H64.5" stroke="white"/>
<path d="M54.75 323H64.5V332.75M54.75 323H45V332.75M54.75 323V342.5M54.75 342.5H45V332.75M54.75 342.5H64.5V332.75M45 332.75H64.5" stroke="white"/>
<path d="M609 635V614H630.5H652V635M609 635V656H630.5H652V635M609 635H652" stroke="white" stroke-width="2"/>
<path d="M25.75 227H35.5V236.75M25.75 227H16V236.75M25.75 227V246.5M25.75 246.5H16V236.75M25.75 246.5H35.5V236.75M16 236.75H35.5" stroke="white"/>
<path d="M449.5 234H471V255M449.5 234H428V255M449.5 234V276M449.5 276H428V255M449.5 276H471V255M428 255H471" stroke="white" stroke-width="2"/>
<path d="M449.5 375H471V396M449.5 375H428V396M449.5 375V417M449.5 417H428V396M449.5 417H471V396M428 396H471" stroke="white" stroke-width="2"/>
<path d="M765.5 532H787V553M765.5 532H744V553M765.5 532V574M765.5 574H744V553M765.5 574H787V553M744 553H787" stroke="white" stroke-width="2"/>
<path d="M573.5 234H595V255M573.5 234H552V255M573.5 234V276M573.5 276H552V255M573.5 276H595V255M552 255H595" stroke="white" stroke-width="2"/>
<path d="M573.5 375H595V396M573.5 375H552V396M573.5 375V417M573.5 417H552V396M573.5 417H595V396M552 396H595" stroke="white" stroke-width="2"/>
<path d="M25.75 259H35.5V268.75M25.75 259H16V268.75M25.75 259V278.5M25.75 278.5H16V268.75M25.75 278.5H35.5V268.75M16 268.75H35.5" stroke="white"/>
<path d="M25.75 291H35.5V300.75M25.75 291H16V300.75M25.75 291V310.5M25.75 310.5H16V300.75M25.75 310.5H35.5V300.75M16 300.75H35.5" stroke="white"/>
<path d="M744 715V694H765.5H787V715M744 715V736H765.5H787V715M744 715H787" stroke="white" stroke-width="2"/>
<path d="M25.75 323H35.5V332.75M25.75 323H16V332.75M25.75 323V342.5M25.75 342.5H16V332.75M25.75 342.5H35.5V332.75M16 332.75H35.5" stroke="white"/>
<path d="M73.1015 408V430H103.644V408M73.1015 408V386H103.644V408M73.1015 408H103.644M122.458 408V430H153V408M122.458 408V386H153V408M122.458 408H153M170.737 408V430H201.28V408M170.737 408V386H201.28V408M170.737 408H201.28M23.5327 408V430H54.0751V408M23.5327 408V386H54.0751V408M23.5327 408H54.0751M6.50904 408V386H0V408M6.50904 408V430H0V408M6.50904 408H0M73.1015 482.5V504.5H103.644V482.5M73.1015 482.5V460.5H103.644V482.5M73.1015 482.5H103.644M122.458 482.5V504.5H153V482.5M122.458 482.5V460.5H153V482.5M122.458 482.5H153M170.737 482.5V504.5H201.28V482.5M170.737 482.5V460.5H201.28V482.5M170.737 482.5H201.28M23.5327 482.5V504.5H54.0751V482.5M23.5327 482.5V460.5H54.0751V482.5M23.5327 482.5H54.0751M6.50904 482.5V460.5H0V482.5M6.50904 482.5V504.5H0V482.5M6.50904 482.5H0M73.1015 559V581H103.644V559M73.1015 559V537H103.644V559M73.1015 559H103.644M122.458 559V581H153V559M122.458 559V537H153V559M122.458 559H153M170.737 559V581H201.28V559M170.737 559V537H201.28V559M170.737 559H201.28M23.5327 559V581H54.0751V559M23.5327 559V537H54.0751V559M23.5327 559H54.0751M6.50904 559V537H0V559M6.50904 559V581H0V559M6.50904 559H0M73.1015 635V657H103.644V635M73.1015 635V613H103.644V635M73.1015 635H103.644M122.458 635V657H153V635M122.458 635V613H153V635M122.458 635H153M170.737 635V657H201.28V635M170.737 635V613H201.28V635M170.737 635H201.28M23.5327 635V657H54.0751V635M23.5327 635V613H54.0751V635M23.5327 635H54.0751M6.50904 635V613H0V635M6.50904 635V657H0V635M6.50904 635H0M73.1015 708V730H103.644V708M73.1015 708V686H103.644V708M73.1015 708H103.644M122.458 708V730H153V708M122.458 708V686H153V708M122.458 708H153M170.737 708V730H201.28V708M170.737 708V686H201.28V708M170.737 708H201.28M23.5327 708V730H54.0751V708M23.5327 708V686H54.0751V708M23.5327 708H54.0751M6.50904 708V686H0V708M6.50904 708V730H0V708M6.50904 708H0" stroke="white" stroke-width="2"/>
<path d="M529 634V656H559.542V634M529 634V612H559.542V634M529 634H559.542" stroke="white" stroke-width="2"/>
<path d="M756 634V656H786.542V634M756 634V612H786.542V634M756 634H786.542" stroke="white" stroke-width="2"/>
<path d="M711 634V656H741.542V634M711 634V612H741.542V634M711 634H741.542" stroke="white" stroke-width="2"/>
<path d="M666 634V656H696.542V634M666 634V612H696.542V634M666 634H696.542" stroke="white" stroke-width="2"/>
<path d="M666 476V498H696.542V476M666 476V454H696.542V476M666 476H696.542" stroke="white" stroke-width="2"/>
<path d="M1116 191.5V228H1167V191.5M1116 191.5V155H1167V191.5M1116 191.5H1167" stroke="white" stroke-width="2"/>
<path d="M1116 298.5V335H1167V298.5M1116 298.5V262H1167V298.5M1116 298.5H1167" stroke="white" stroke-width="2"/>
<path d="M529 713V735H559.542V713M529 713V691H559.542V713M529 713H559.542" stroke="white" stroke-width="2"/>
<path d="M699 715V737H729.542V715M699 715V693H729.542V715M699 715H729.542" stroke="white" stroke-width="2"/>
<path d="M654 715V737H684.542V715M654 715V693H684.542V715M654 715H684.542" stroke="white" stroke-width="2"/>
<path d="M609 715V737H639.542V715M609 715V693H639.542V715M609 715H639.542" stroke="white" stroke-width="2"/>
<path d="M666 555V577H696.542V555M666 555V533H696.542V555M666 555H696.542" stroke="white" stroke-width="2"/>
<path d="M125.5 312V320H138V312M125.5 312V308.5C130.37 306.488 133.106 306.612 138 308.5V312M125.5 312H138M145 312V320H157.5V312M145 312V308.5C149.87 306.488 152.606 306.612 157.5 308.5V312M145 312H157.5M125.5 334V341.5H138V334M125.5 334V330C130.37 327.988 133.106 328.112 138 330V334M125.5 334H138M145 334V341.5H157.5V334M145 334V330C149.87 327.988 152.606 328.112 157.5 330V334M145 334H157.5" stroke="white" stroke-width="1.5"/>
<path d="M641 252.822V270H667.953V252.822M641 252.822V245.306C651.501 240.986 657.4 241.253 667.953 245.307V252.822M641 252.822H667.953M683.047 252.822V270H710V252.822M683.047 252.822V245.307C693.547 240.986 699.446 241.253 710 245.307V252.822M683.047 252.822H710M641 315.089V331.194H667.953V315.089M641 315.089V306.5C651.501 302.18 657.4 302.447 667.953 306.5V315.089M641 315.089H667.953M683.047 315.089V331.193H710V315.089M683.047 315.089V306.5C693.547 302.18 699.446 302.447 710 306.5V315.089M683.047 315.089H710" stroke="white" stroke-width="1.5"/>
<path d="M641 373.656V390.834H667.953V373.656M641 373.656V366.141C651.501 361.82 657.4 362.088 667.953 366.141V373.656M641 373.656H667.953M683.047 373.656V390.834H710V373.656M683.047 373.656V366.141C693.547 361.821 699.446 362.088 710 366.141V373.656M683.047 373.656H710M641 427.5C651.501 423.18 657.4 423.447 667.953 427.5V431.5H641V427.5ZM683.047 427.5C693.547 423.179 699.446 423.447 710 427.5V431.5H683.047V427.5Z" stroke="white" stroke-width="1.5"/>
<path d="M766 373.656V390.834H792.953V373.656M766 373.656V366.141C776.501 361.82 782.4 362.088 792.953 366.141V373.656M766 373.656H792.953" stroke="white" stroke-width="1.5"/>
<path d="M792.953 428.141C782.4 424.088 776.501 423.82 766 428.141V431H792.953V428.141Z" stroke="white" stroke-width="1.5"/>
<path d="M141.5 290.5H158V283.25M141.5 290.5H125V283.25M141.5 290.5V276M141.5 276H125V283.25M141.5 276H158V283.25M125 283.25H158" stroke="white" stroke-width="1.5"/>
<path d="M173 192H169V211H215V192H211M173 192V207.545H178.5M173 192H178.5M211 192V207.545H206M211 192H206M178.5 192V207.545M178.5 192H184M178.5 207.545H184M184 192V207.545M184 192H189.5M184 207.545H189.5M189.5 192V207.545M189.5 192H195M189.5 207.545H195M195 192V207.545M195 192H200.5M195 207.545H200.5M200.5 192V207.545M200.5 192H206M200.5 207.545H206M206 192V207.545" stroke="white" stroke-width="2"/>
<path d="M173 266H169V285H215V266H211M173 266V281.545H178.5M173 266H178.5M211 266V281.545H206M211 266H206M178.5 266V281.545M178.5 266H184M178.5 281.545H184M184 266V281.545M184 266H189.5M184 281.545H189.5M189.5 266V281.545M189.5 266H195M189.5 281.545H195M195 266V281.545M195 266H200.5M195 281.545H200.5M200.5 266V281.545M200.5 266H206M200.5 281.545H206M206 266V281.545" stroke="white" stroke-width="2"/>
<path d="M173 340H169V351H215V340H211M173 340V351H178.5M173 340H178.5M211 340V351H206M211 340H206M178.5 340V351M178.5 340H184M178.5 351H184M184 340V351M184 340H189.5M184 351H189.5M189.5 340V351M189.5 340H195M189.5 351H195M195 340V351M195 340H200.5M195 351H200.5M200.5 340V351M200.5 340H206M200.5 351H206M206 340V351" stroke="white" stroke-width="2"/>
<path d="M192.25 204H176V181M192.25 204H208.5V181M192.25 204V158M192.25 158H208.5V181M192.25 158H176V181M176 181H208.5" stroke="white"/>
<path d="M192.25 278H176V255M192.25 278H208.5V255M192.25 278V232M192.25 232H208.5V255M192.25 232H176V255M176 255H208.5" stroke="white"/>
<path d="M192.25 351.5H176V329M192.25 351.5H208.5V329M192.25 351.5V306M192.25 306H208.5V329M192.25 306H176V329M176 329H208.5" stroke="white"/>
<path d="M233 192H229V211H275V192H271M233 192V207.545H238.5M233 192H238.5M271 192V207.545H266M271 192H266M238.5 192V207.545M238.5 192H244M238.5 207.545H244M244 192V207.545M244 192H249.5M244 207.545H249.5M249.5 192V207.545M249.5 192H255M249.5 207.545H255M255 192V207.545M255 192H260.5M255 207.545H260.5M260.5 192V207.545M260.5 192H266M260.5 207.545H266M266 192V207.545" stroke="white" stroke-width="2"/>
<path d="M233 266H229V285H275V266H271M233 266V281.545H238.5M233 266H238.5M271 266V281.545H266M271 266H266M238.5 266V281.545M238.5 266H244M238.5 281.545H244M244 266V281.545M244 266H249.5M244 281.545H249.5M249.5 266V281.545M249.5 266H255M249.5 281.545H255M255 266V281.545M255 266H260.5M255 281.545H260.5M260.5 266V281.545M260.5 266H266M260.5 281.545H266M266 266V281.545" stroke="white" stroke-width="2"/>
<path d="M233 340H229V359H275V340H271M233 340V355.545H238.5M233 340H238.5M271 340V355.545H266M271 340H266M238.5 340V355.545M238.5 340H244M238.5 355.545H244M244 340V355.545M244 340H249.5M244 355.545H249.5M249.5 340V355.545M249.5 340H255M249.5 355.545H255M255 340V355.545M255 340H260.5M255 355.545H260.5M260.5 340V355.545M260.5 340H266M260.5 355.545H266M266 340V355.545" stroke="white" stroke-width="2"/>
<path d="M233 414H229V433H275V414H271M233 414V429.545H238.5M233 414H238.5M271 414V429.545H266M271 414H266M238.5 414V429.545M238.5 414H244M238.5 429.545H244M244 414V429.545M244 414H249.5M244 429.545H249.5M249.5 414V429.545M249.5 414H255M249.5 429.545H255M255 414V429.545M255 414H260.5M255 429.545H260.5M260.5 414V429.545M260.5 414H266M260.5 429.545H266M266 414V429.545" stroke="white" stroke-width="2"/>
<path d="M233 486H229V505H275V486H271M233 486V501.545H238.5M233 486H238.5M271 486V501.545H266M271 486H266M238.5 486V501.545M238.5 486H244M238.5 501.545H244M244 486V501.545M244 486H249.5M244 501.545H249.5M249.5 486V501.545M249.5 486H255M249.5 501.545H255M255 486V501.545M255 486H260.5M255 501.545H260.5M260.5 486V501.545M260.5 486H266M260.5 501.545H266M266 486V501.545" stroke="white" stroke-width="2"/>
<path d="M293 192H289V211H335V192H331M293 192V207.545H298.5M293 192H298.5M331 192V207.545H326M331 192H326M298.5 192V207.545M298.5 192H304M298.5 207.545H304M304 192V207.545M304 192H309.5M304 207.545H309.5M309.5 192V207.545M309.5 192H315M309.5 207.545H315M315 192V207.545M315 192H320.5M315 207.545H320.5M320.5 192V207.545M320.5 192H326M320.5 207.545H326M326 192V207.545" stroke="white" stroke-width="2"/>
<path d="M293 266H289V285H335V266H331M293 266V281.545H298.5M293 266H298.5M331 266V281.545H326M331 266H326M298.5 266V281.545M298.5 266H304M298.5 281.545H304M304 266V281.545M304 266H309.5M304 281.545H309.5M309.5 266V281.545M309.5 266H315M309.5 281.545H315M315 266V281.545M315 266H320.5M315 281.545H320.5M320.5 266V281.545M320.5 266H326M320.5 281.545H326M326 266V281.545" stroke="white" stroke-width="2"/>
<path d="M293 340H289V359H335V340H331M293 340V355.545H298.5M293 340H298.5M331 340V355.545H326M331 340H326M298.5 340V355.545M298.5 340H304M298.5 355.545H304M304 340V355.545M304 340H309.5M304 355.545H309.5M309.5 340V355.545M309.5 340H315M309.5 355.545H315M315 340V355.545M315 340H320.5M315 355.545H320.5M320.5 340V355.545M320.5 340H326M320.5 355.545H326M326 340V355.545" stroke="white" stroke-width="2"/>
<path d="M293 414H289V433H335V414H331M293 414V429.545H298.5M293 414H298.5M331 414V429.545H326M331 414H326M298.5 414V429.545M298.5 414H304M298.5 429.545H304M304 414V429.545M304 414H309.5M304 429.545H309.5M309.5 414V429.545M309.5 414H315M309.5 429.545H315M315 414V429.545M315 414H320.5M315 429.545H320.5M320.5 414V429.545M320.5 414H326M320.5 429.545H326M326 414V429.545" stroke="white" stroke-width="2"/>
<path d="M293 486H289V505H335V486H331M293 486V501.545H298.5M293 486H298.5M331 486V501.545H326M331 486H326M298.5 486V501.545M298.5 486H304M298.5 501.545H304M304 486V501.545M304 486H309.5M304 501.545H309.5M309.5 486V501.545M309.5 486H315M309.5 501.545H315M315 486V501.545M315 486H320.5M315 501.545H320.5M320.5 486V501.545M320.5 486H326M320.5 501.545H326M326 486V501.545" stroke="white" stroke-width="2"/>
<path d="M252.25 204H236V181M252.25 204H268.5V181M252.25 204V158M252.25 158H268.5V181M252.25 158H236V181M236 181H268.5" stroke="white"/>
<path d="M252.25 278H236V255M252.25 278H268.5V255M252.25 278V232M252.25 232H268.5V255M252.25 232H236V255M236 255H268.5" stroke="white"/>
<path d="M252.25 352H236V329M252.25 352H268.5V329M252.25 352V306M252.25 306H268.5V329M252.25 306H236V329M236 329H268.5" stroke="white"/>
<path d="M252.25 426H236V403M252.25 426H268.5V403M252.25 426V380M252.25 380H268.5V403M252.25 380H236V403M236 403H268.5" stroke="white"/>
<path d="M252.25 498H236V475M252.25 498H268.5V475M252.25 498V452M252.25 452H268.5V475M252.25 452H236V475M236 475H268.5" stroke="white"/>
<path d="M312.25 204H296V181M312.25 204H328.5V181M312.25 204V158M312.25 158H328.5V181M312.25 158H296V181M296 181H328.5" stroke="white"/>
<path d="M432 192H428V211H474V192H470M432 192V207.545H437.5M432 192H437.5M470 192V207.545H465M470 192H465M437.5 192V207.545M437.5 192H443M437.5 207.545H443M443 192V207.545M443 192H448.5M443 207.545H448.5M448.5 192V207.545M448.5 192H454M448.5 207.545H454M454 192V207.545M454 192H459.5M454 207.545H459.5M459.5 192V207.545M459.5 192H465M459.5 207.545H465M465 192V207.545" stroke="white" stroke-width="2"/>
<path d="M1286 237H1282V256H1328V237H1324M1286 237V252.545H1291.5M1286 237H1291.5M1324 237V252.545H1319M1324 237H1319M1291.5 237V252.545M1291.5 237H1297M1291.5 252.545H1297M1297 237V252.545M1297 237H1302.5M1297 252.545H1302.5M1302.5 237V252.545M1302.5 237H1308M1302.5 252.545H1308M1308 237V252.545M1308 237H1313.5M1308 252.545H1313.5M1313.5 237V252.545M1313.5 237H1319M1313.5 252.545H1319M1319 237V252.545" stroke="white" stroke-width="2"/>
<path d="M1286 319H1282V338H1328V319H1324M1286 319V334.545H1291.5M1286 319H1291.5M1324 319V334.545H1319M1324 319H1319M1291.5 319V334.545M1291.5 319H1297M1291.5 334.545H1297M1297 319V334.545M1297 319H1302.5M1297 334.545H1302.5M1302.5 319V334.545M1302.5 319H1308M1302.5 334.545H1308M1308 319V334.545M1308 319H1313.5M1308 334.545H1313.5M1313.5 319V334.545M1313.5 319H1319M1313.5 334.545H1319M1319 319V334.545" stroke="white" stroke-width="2"/>
<path d="M432 333H428V352H474V333H470M432 333V348.545H437.5M432 333H437.5M470 333V348.545H465M470 333H465M437.5 333V348.545M437.5 333H443M437.5 348.545H443M443 333V348.545M443 333H448.5M443 348.545H448.5M448.5 333V348.545M448.5 333H454M448.5 348.545H454M454 333V348.545M454 333H459.5M454 348.545H459.5M459.5 333V348.545M459.5 333H465M459.5 348.545H465M465 333V348.545" stroke="white" stroke-width="2"/>
<path d="M431 473H427V492H473V473H469M431 473V488.545H436.5M431 473H436.5M469 473V488.545H464M469 473H464M436.5 473V488.545M436.5 473H442M436.5 488.545H442M442 473V488.545M442 473H447.5M442 488.545H447.5M447.5 473V488.545M447.5 473H453M447.5 488.545H453M453 473V488.545M453 473H458.5M453 488.545H458.5M458.5 473V488.545M458.5 473H464M458.5 488.545H464M464 473V488.545" stroke="white" stroke-width="2"/>
<path d="M451.25 204H435V181M451.25 204H467.5V181M451.25 204V158M451.25 158H467.5V181M451.25 158H435V181M435 181H467.5" stroke="white"/>
<path d="M1305.25 249H1289V226M1305.25 249H1321.5V226M1305.25 249V203M1305.25 203H1321.5V226M1305.25 203H1289V226M1289 226H1321.5" stroke="white"/>
<path d="M1305.25 331H1289V308M1305.25 331H1321.5V308M1305.25 331V285M1305.25 285H1321.5V308M1305.25 285H1289V308M1289 308H1321.5" stroke="white"/>
<path d="M451.25 345H435V322M451.25 345H467.5V322M451.25 345V299M451.25 299H467.5V322M451.25 299H435V322M435 322H467.5" stroke="white"/>
<path d="M450.25 485H434V462M450.25 485H466.5V462M450.25 485V439M450.25 439H466.5V462M450.25 439H434V462M434 462H466.5" stroke="white"/>
<path d="M492 192H488V211H534V192H530M492 192V207.545H497.5M492 192H497.5M530 192V207.545H525M530 192H525M497.5 192V207.545M497.5 192H503M497.5 207.545H503M503 192V207.545M503 192H508.5M503 207.545H508.5M508.5 192V207.545M508.5 192H514M508.5 207.545H514M514 192V207.545M514 192H519.5M514 207.545H519.5M519.5 192V207.545M519.5 192H525M519.5 207.545H525M525 192V207.545" stroke="white" stroke-width="2"/>
<path d="M1346 237H1342V256H1388V237H1384M1346 237V252.545H1351.5M1346 237H1351.5M1384 237V252.545H1379M1384 237H1379M1351.5 237V252.545M1351.5 237H1357M1351.5 252.545H1357M1357 237V252.545M1357 237H1362.5M1357 252.545H1362.5M1362.5 237V252.545M1362.5 237H1368M1362.5 252.545H1368M1368 237V252.545M1368 237H1373.5M1368 252.545H1373.5M1373.5 237V252.545M1373.5 237H1379M1373.5 252.545H1379M1379 237V252.545" stroke="white" stroke-width="2"/>
<path d="M1346 319H1342V338H1388V319H1384M1346 319V334.545H1351.5M1346 319H1351.5M1384 319V334.545H1379M1384 319H1379M1351.5 319V334.545M1351.5 319H1357M1351.5 334.545H1357M1357 319V334.545M1357 319H1362.5M1357 334.545H1362.5M1362.5 319V334.545M1362.5 319H1368M1362.5 334.545H1368M1368 319V334.545M1368 319H1373.5M1368 334.545H1373.5M1373.5 319V334.545M1373.5 319H1379M1373.5 334.545H1379M1379 319V334.545" stroke="white" stroke-width="2"/>
<path d="M492 333H488V352H534V333H530M492 333V348.545H497.5M492 333H497.5M530 333V348.545H525M530 333H525M497.5 333V348.545M497.5 333H503M497.5 348.545H503M503 333V348.545M503 333H508.5M503 348.545H508.5M508.5 333V348.545M508.5 333H514M508.5 348.545H514M514 333V348.545M514 333H519.5M514 348.545H519.5M519.5 333V348.545M519.5 333H525M519.5 348.545H525M525 333V348.545" stroke="white" stroke-width="2"/>
<path d="M491 473H487V492H505V488.545M491 473V488.545H496.5M491 473H496.5M496.5 473V488.545M496.5 473H502M496.5 488.545H502M502 473V488.545M502 473H505V488.545M502 488.545H505" stroke="white" stroke-width="2"/>
<path d="M552 192H548V211H594V192H590M552 192V207.545H557.5M552 192H557.5M590 192V207.545H585M590 192H585M557.5 192V207.545M557.5 192H563M557.5 207.545H563M563 192V207.545M563 192H568.5M563 207.545H568.5M568.5 192V207.545M568.5 192H574M568.5 207.545H574M574 192V207.545M574 192H579.5M574 207.545H579.5M579.5 192V207.545M579.5 192H585M579.5 207.545H585M585 192V207.545" stroke="white" stroke-width="2"/>
<path d="M1406 237H1402V256H1448V237H1444M1406 237V252.545H1411.5M1406 237H1411.5M1444 237V252.545H1439M1444 237H1439M1411.5 237V252.545M1411.5 237H1417M1411.5 252.545H1417M1417 237V252.545M1417 237H1422.5M1417 252.545H1422.5M1422.5 237V252.545M1422.5 237H1428M1422.5 252.545H1428M1428 237V252.545M1428 237H1433.5M1428 252.545H1433.5M1433.5 237V252.545M1433.5 237H1439M1433.5 252.545H1439M1439 237V252.545" stroke="white" stroke-width="2"/>
<path d="M1406 319H1402V338H1448V319H1444M1406 319V334.545H1411.5M1406 319H1411.5M1444 319V334.545H1439M1444 319H1439M1411.5 319V334.545M1411.5 319H1417M1411.5 334.545H1417M1417 319V334.545M1417 319H1422.5M1417 334.545H1422.5M1422.5 319V334.545M1422.5 319H1428M1422.5 334.545H1428M1428 319V334.545M1428 319H1433.5M1428 334.545H1433.5M1433.5 319V334.545M1433.5 319H1439M1433.5 334.545H1439M1439 319V334.545" stroke="white" stroke-width="2"/>
<path d="M552 333H548V352H594V333H590M552 333V348.545H557.5M552 333H557.5M590 333V348.545H585M590 333H585M557.5 333V348.545M557.5 333H563M557.5 348.545H563M563 333V348.545M563 333H568.5M563 348.545H568.5M568.5 333V348.545M568.5 333H574M568.5 348.545H574M574 333V348.545M574 333H579.5M574 348.545H579.5M579.5 333V348.545M579.5 333H585M579.5 348.545H585M585 333V348.545" stroke="white" stroke-width="2"/>
<path d="M511.25 204H495V181M511.25 204H527.5V181M511.25 204V158M511.25 158H527.5V181M511.25 158H495V181M495 181H527.5" stroke="white"/>
<path d="M1365.25 249H1349V226M1365.25 249H1381.5V226M1365.25 249V203M1365.25 203H1381.5V226M1365.25 203H1349V226M1349 226H1381.5" stroke="white"/>
<path d="M1365.25 331H1349V308M1365.25 331H1381.5V308M1365.25 331V285M1365.25 285H1381.5V308M1365.25 285H1349V308M1349 308H1381.5" stroke="white"/>
<path d="M511.25 345H495V322M511.25 345H527.5V322M511.25 345V299M511.25 299H527.5V322M511.25 299H495V322M495 322H527.5" stroke="white"/>
<path d="M494 462V485H505V462M494 462V439H505V462M494 462H505" stroke="white"/>
<path d="M571.25 204H555V181M571.25 204H587.5V181M571.25 204V158M571.25 158H587.5V181M571.25 158H555V181M555 181H587.5" stroke="white"/>
<path d="M1425.25 249H1409V226M1425.25 249H1441.5V226M1425.25 249V203M1425.25 203H1441.5V226M1425.25 203H1409V226M1409 226H1441.5" stroke="white"/>
<path d="M1425.25 331H1409V308M1425.25 331H1441.5V308M1425.25 331V285M1425.25 285H1441.5V308M1425.25 285H1409V308M1409 308H1441.5" stroke="white"/>
<path d="M571.25 345H555V322M571.25 345H587.5V322M571.25 345V299M571.25 299H587.5V322M571.25 299H555V322M555 322H587.5" stroke="white"/>
<path d="M312.25 278H296V255M312.25 278H328.5V255M312.25 278V232M312.25 232H328.5V255M312.25 232H296V255M296 255H328.5" stroke="white"/>
<path d="M312.25 352H296V329M312.25 352H328.5V329M312.25 352V306M312.25 306H328.5V329M312.25 306H296V329M296 329H328.5" stroke="white"/>
<path d="M312.25 426H296V403M312.25 426H328.5V403M312.25 426V380M312.25 380H328.5V403M312.25 380H296V403M296 403H328.5" stroke="white"/>
<path d="M312.25 498H296V475M312.25 498H328.5V475M312.25 498V452M312.25 452H328.5V475M312.25 452H296V475M296 475H328.5" stroke="white"/>
<path d="M6.5 236.75V246.5H1V236.75M6.5 236.75V227H1V236.75M6.5 236.75H1" stroke="white"/>
<path d="M6.5 268.75V278.5H1V268.75M6.5 268.75V259H1V268.75M6.5 268.75H1" stroke="white"/>
<path d="M6.5 300.75V310.5H1V300.75M6.5 300.75V291H1V300.75M6.5 300.75H1" stroke="white"/>
<path d="M6.5 332.75V342.5H1V332.75M6.5 332.75V323H1V332.75M6.5 332.75H1" stroke="white"/>
<path d="M93 316H82V330.5H93V316Z" stroke="white"/>
<path d="M111 316H100V330.5H111V316Z" stroke="white"/>
<path d="M93 337.5H82V350.5H93V337.5Z" stroke="white"/>
<path d="M111 337.5H100V350.5H111V337.5Z" stroke="white"/>
<path d="M375.5 454.25V442.5H361M375.5 454.25V466H361M375.5 454.25H346.5M346.5 454.25V466H361M346.5 454.25V442.5H361M361 442.5V466M387.5 416.75V428.5H402M387.5 416.75V405H402M387.5 416.75H416.5M416.5 416.75V405H402M416.5 416.75V428.5H402M402 405V428.5M402.5 479H388V490.75M402.5 479H417V490.75M402.5 479V502.5M402.5 502.5H417V490.75M402.5 502.5H388V490.75M388 490.75H417M355.5 490.75V502.5H375.5V490.75M355.5 490.75V479H375.5V490.75M355.5 490.75H375.5M388 454.25V466H408V454.25M388 454.25V442.5H408V454.25M388 454.25H408M355.5 416.75V428.5H375.5V416.75M355.5 416.75V405H375.5V416.75M355.5 416.75H375.5" stroke="white"/>
<path d="M293.75 531.5H268.875M293.75 531.5H318.625M293.75 531.5V563V594.5M293.75 594.5H268.875M293.75 594.5H318.625M244 563V594.5H268.875M244 563V531.5H268.875M244 563C244 563 304.643 563 343.5 563M343.5 563C343.5 550.698 343.5 531.5 343.5 531.5H318.625M343.5 563C343.5 575.302 343.5 594.5 343.5 594.5H318.625M268.875 531.5V563V594.5M318.625 531.5C318.625 531.5 318.625 550.698 318.625 563C318.625 575.302 318.625 594.5 318.625 594.5M425.25 531.5V594.5M425.25 531.5H400.375M425.25 531.5H450.125M425.25 594.5H400.375M425.25 594.5H450.125M375.5 563V594.5H400.375M375.5 563V531.5H400.375M375.5 563H475M475 563V531.5H450.125M475 563V594.5H450.125M400.375 531.5V594.5M450.125 531.5V594.5" stroke="white" stroke-width="2"/>
<path d="M293.75 674H268.875M293.75 674H318.625M293.75 674V705.5V737M293.75 737H268.875M293.75 737H318.625M244 705.5V737H268.875M244 705.5V674H268.875M244 705.5C244 705.5 304.643 705.5 343.5 705.5M343.5 705.5C343.5 693.198 343.5 674 343.5 674H318.625M343.5 705.5C343.5 717.802 343.5 737 343.5 737H318.625M268.875 674V705.5V737M318.625 674C318.625 674 318.625 693.198 318.625 705.5C318.625 717.802 318.625 737 318.625 737M425.25 674V737M425.25 674H400.375M425.25 674H450.125M425.25 737H400.375M425.25 737H450.125M375.5 705.5V737H400.375M375.5 705.5V674H400.375M375.5 705.5H475M475 705.5V674H450.125M475 705.5V737H450.125M400.375 674V737M450.125 674V737" stroke="white" stroke-width="2"/>
<path d="M295 614H270V653H295M295 614H320V653H295M295 614V653M425 614H400V653H425M425 614H450V653H425M425 614V653" stroke="white" stroke-width="2"/>
<path d="M720 256V278H750.542V256M720 256V234H750.542V256M720 256H750.542" stroke="white" stroke-width="2"/>
<path d="M720 321V343H750.542V321M720 321V299H750.542V321M720 321H750.542" stroke="white" stroke-width="2"/>
<path d="M720 380V402H750.542V380M720 380V358H750.542V380M720 380H750.542" stroke="white" stroke-width="2"/>
<path d="M750.542 416H720V425H750.542V416Z" stroke="white" stroke-width="2"/>
<path d="M832 372V344H847M832 372V380H1080V372M832 372L847 375M1080 372V344H1065.25M1080 372L1065.25 375M847 344V375M847 344H860.5M847 375H860.5M860.5 344V375M860.5 344H876.5M860.5 375L876.5 372M876.5 344V372M876.5 344H893M876.5 372L893 375M893 344V375M893 344H907.5M893 375H907.5M907.5 344V375M907.5 344H927M907.5 375L927 372M927 344V372M927 344H945M927 372L945 375M945 344V375M945 344H970.5M945 375H970.5M970.5 344V375M970.5 344H987.5M970.5 375L987.5 372M987.5 344V372M987.5 344H1003.5M987.5 372L1003.5 375M1003.5 344V375M1003.5 344H1019M1003.5 375H1019M1019 344V375M1019 344H1035.5M1019 375L1035.5 372M1035.5 344V372M1035.5 344H1050.5M1035.5 372L1050.5 375M1050.5 344V375M1050.5 344H1065.25M1050.5 375H1065.25M1065.25 375V344" stroke="white" stroke-width="2"/>
<path d="M832 494.5V466.5H847M832 494.5V502.5H1080V494.5M832 494.5L847 497.5M1080 494.5V466.5H1065.25M1080 494.5L1065.25 497.5M847 466.5V497.5M847 466.5H860.5M847 497.5H860.5M860.5 466.5V497.5M860.5 466.5H876.5M860.5 497.5L876.5 494.5M876.5 466.5V494.5M876.5 466.5H893M876.5 494.5L893 497.5M893 466.5V497.5M893 466.5H907.5M893 497.5H907.5M907.5 466.5V497.5M907.5 466.5H927M907.5 497.5L927 494.5M927 466.5V494.5M927 466.5H945M927 494.5L945 497.5M945 466.5V497.5M945 466.5H970.5M945 497.5H970.5M970.5 466.5V497.5M970.5 466.5H987.5M970.5 497.5L987.5 494.5M987.5 466.5V494.5M987.5 466.5H1003.5M987.5 494.5L1003.5 497.5M1003.5 466.5V497.5M1003.5 466.5H1019M1003.5 497.5H1019M1019 466.5V497.5M1019 466.5H1035.5M1019 497.5L1035.5 494.5M1035.5 466.5V494.5M1035.5 466.5H1050.5M1035.5 494.5L1050.5 497.5M1050.5 466.5V497.5M1050.5 466.5H1065.25M1050.5 497.5H1065.25M1065.25 497.5V466.5" stroke="white" stroke-width="2"/>
<path d="M533 542.5V514.5H548M533 542.5V550.5H628V542.5M533 542.5L548 545.5M548 514.5V545.5M548 514.5H561.5M548 545.5H561.5M561.5 514.5V545.5M561.5 514.5H577.5M561.5 545.5L577.5 542.5M577.5 514.5V542.5M577.5 514.5H594M577.5 542.5L594 545.5M594 514.5V545.5M594 514.5H608.5M594 545.5H608.5M608.5 514.5V545.5M608.5 514.5H628V542.5M608.5 545.5L628 542.5" stroke="white" stroke-width="2"/>
<path d="M832 617V589H847M832 617V625H1080V617M832 617L847 620M1080 617V589H1065.25M1080 617L1065.25 620M847 589V620M847 589H860.5M847 620H860.5M860.5 589V620M860.5 589H876.5M860.5 620L876.5 617M876.5 589V617M876.5 589H893M876.5 617L893 620M893 589V620M893 589H907.5M893 620H907.5M907.5 589V620M907.5 589H927M907.5 620L927 617M927 589V617M927 589H945M927 617L945 620M945 589V620M945 589H970.5M945 620H970.5M970.5 589V620M970.5 589H987.5M970.5 620L987.5 617M987.5 589V617M987.5 589H1003.5M987.5 617L1003.5 620M1003.5 589V620M1003.5 589H1019M1003.5 620H1019M1019 589V620M1019 589H1035.5M1019 620L1035.5 617M1035.5 589V617M1035.5 589H1050.5M1035.5 617L1050.5 620M1050.5 589V620M1050.5 589H1065.25M1050.5 620H1065.25M1065.25 620V589" stroke="white" stroke-width="2"/>
<path d="M832 739.5V711.5H847M832 739.5V747.5H1080V739.5M832 739.5L847 742.5M1080 739.5V711.5H1065.25M1080 739.5L1065.25 742.5M847 711.5V742.5M847 711.5H860.5M847 742.5H860.5M860.5 711.5V742.5M860.5 711.5H876.5M860.5 742.5L876.5 739.5M876.5 711.5V739.5M876.5 711.5H893M876.5 739.5L893 742.5M893 711.5V742.5M893 711.5H907.5M893 742.5H907.5M907.5 711.5V742.5M907.5 711.5H927M907.5 742.5L927 739.5M927 711.5V739.5M927 711.5H945M927 739.5L945 742.5M945 711.5V742.5M945 711.5H970.5M945 742.5H970.5M970.5 711.5V742.5M970.5 711.5H987.5M970.5 742.5L987.5 739.5M987.5 711.5V739.5M987.5 711.5H1003.5M987.5 739.5L1003.5 742.5M1003.5 711.5V742.5M1003.5 711.5H1019M1003.5 742.5H1019M1019 711.5V742.5M1019 711.5H1035.5M1019 742.5L1035.5 739.5M1035.5 711.5V739.5M1035.5 711.5H1050.5M1035.5 739.5L1050.5 742.5M1050.5 711.5V742.5M1050.5 711.5H1065.25M1050.5 742.5H1065.25M1065.25 742.5V711.5" stroke="white" stroke-width="2"/>
<path d="M843 308V380H881.25M843 308V302.5H919.5V308M843 308H881.25M919.5 308V380H881.25M919.5 308H881.25M881.25 308V380M992.75 308V380H1031M992.75 308V302.5H1069.25V308M992.75 308H1031M1069.25 308V380H1031M1069.25 308H1031M1031 308V380" stroke="white" stroke-width="2"/>
<path d="M843 430.5V502.5H881.25M843 430.5V425H919.5V430.5M843 430.5H881.25M919.5 430.5V502.5H881.25M919.5 430.5H881.25M881.25 430.5V502.5M992.75 430.5V502.5H1031M992.75 430.5V425H1069.25V430.5M992.75 430.5H1031M1069.25 430.5V502.5H1031M1069.25 430.5H1031M1031 430.5V502.5" stroke="white" stroke-width="2"/>
<path d="M544 478.5V550.5H582.25M544 478.5V473H620.5V478.5M544 478.5H582.25M620.5 478.5V550.5H582.25M620.5 478.5H582.25M582.25 478.5V550.5" stroke="white" stroke-width="2"/>
<path d="M843 553V625H881.25M843 553V547.5H919.5V553M843 553H881.25M919.5 553V625H881.25M919.5 553H881.25M881.25 553V625M992.75 553V625H1031M992.75 553V547.5H1069.25V553M992.75 553H1031M1069.25 553V625H1031M1069.25 553H1031M1031 553V625" stroke="white" stroke-width="2"/>
<path d="M843 675.5V747.5H881.25M843 675.5V670H919.5V675.5M843 675.5H881.25M919.5 675.5V747.5H881.25M919.5 675.5H881.25M881.25 675.5V747.5M992.75 675.5V747.5H1031M992.75 675.5V670H1069.25V675.5M992.75 675.5H1031M1069.25 675.5V747.5H1031M1069.25 675.5H1031M1031 675.5V747.5" stroke="white" stroke-width="2"/>
<path d="M1116 134V71.5H1161V134" stroke="white" stroke-width="2"/>
<path d="M1158 469.5V407H1203V469.5" stroke="white" stroke-width="2"/>
<path d="M899.5 92.25V129H937.75M899.5 92.25V55.5H976V92.25M899.5 92.25H937.75M976 92.25V129H937.75M976 92.25H937.75M994 92.25V129H1032.25M994 92.25V55.5H1070.5V92.25M994 92.25H1032.25M1070.5 92.25V129H1032.25M1070.5 92.25H1032.25M937.75 129V92.25M1032.25 129V92.25M899.5 230V223.5H1070.5V230L985 233.5L899.5 230ZM911 223.5V153H1057V223.5H911Z" stroke="white" stroke-width="2"/>
<path d="M1287 569.75V606.5H1417V569.75M1287 569.75V533C1312.39 522.814 1332.19 522.903 1352 523M1287 569.75H1352M1417 569.75V533C1391.61 523.201 1371.81 523.097 1352 523M1417 569.75H1352M1352 569.75V523M1123.5 569.75V606.5H1253.5V569.75M1123.5 569.75V533C1148.89 522.814 1168.69 522.903 1188.5 523M1123.5 569.75H1188.5M1253.5 569.75V533C1228.11 523.201 1208.31 523.097 1188.5 523M1253.5 569.75H1188.5M1188.5 569.75V523" stroke="white" stroke-width="2"/>
<path d="M1287.5 697.769V734.519H1417.5V697.769M1287.5 697.769V661.019C1312.89 650.833 1332.69 650.922 1352.5 651.019M1287.5 697.769H1352.5M1417.5 697.769V661.019C1392.11 651.22 1372.31 651.115 1352.5 651.019M1417.5 697.769H1352.5M1352.5 697.769V651.019M1124 697.769V734.519H1254V697.769M1124 697.769V661.019C1149.39 650.833 1169.19 650.922 1189 651.019M1124 697.769H1189M1254 697.769V661.019C1228.61 651.22 1208.81 651.115 1189 651.019M1254 697.769H1189M1189 697.769V651.019" stroke="white" stroke-width="2"/>
<path d="M984.5 213V223.5M984.5 213H1004.25M984.5 213H964.75M984.5 223.5H1004.25M984.5 223.5H964.75M945 213V223.5M945 213H964.75M945 213H925.25M945 223.5H964.75M945 223.5H925.25M1024 213V223.5M1024 213H1043.75M1024 213H1004.25M1024 223.5H1043.75M1024 223.5H1004.25M1043.75 213H1063.5V223.5H1043.75M1043.75 213V223.5M1004.25 213V223.5M964.75 213V223.5M925.25 213H905.5V223.5H925.25M925.25 213V223.5" stroke="white"/>
<path d="M935 200.5C935 199.798 935 191.657 935 182.75M935 165C935 169.707 935 176.422 935 182.75M954 165V182.75M954 200.5V182.75M954 182.75H935M961 200.5L964.62 185.5M980.5 200.5L977.12 185.5M964.62 185.5L971 165L977.12 185.5M964.62 185.5H977.12M1007 165H988.5V200.5H1007M1016.5 165V182.75M1016.5 200.5V182.75M1016.5 182.75C1022 176.833 1033.3 165 1034.5 165M1016.5 182.75L1034.5 200.5" stroke="white"/>
<path d="M587.5 674.5H805" stroke="white"/>
<path d="M1156 101.5H1152.75V104H1156V101.5Z" stroke="white"/>
<path d="M1198 437H1194.75V439.5H1198V437Z" stroke="white"/>
<path d="M1281.5 432.5V472.5H1330.5M1281.5 432.5H1377.5V434M1281.5 432.5L1330.5 472.5M1330.5 472.5H1377.5V434M1330.5 472.5L1377.5 434" stroke="white" stroke-width="3"/>
<path d="M1256.5 363.5V406.5H1391.5V363.5H1256.5Z" stroke="white" stroke-width="3"/>
<path d="M1324 363.5V406.5" stroke="white"/>
<path d="M1058 32V1H1078.25M1139 32V1H1118.75M1098.5 1V32M1098.5 1H1078.25M1098.5 1H1118.75M1078.25 1V32M1118.75 1V32" stroke="white" stroke-width="2"/>
<path d="M641 220V207H649.75M658.5 207V220M658.5 207H649.75M658.5 207H667.25M649.75 207V220M667.25 207V220M667.25 207L675.5 220" stroke="white" stroke-width="2"/>
<path d="M176 123V92H196.25M257 123V92H236.75M216.5 92V123M216.5 92H196.25M216.5 92H236.75M196.25 92V123M236.75 92V123" stroke="white" stroke-width="2"/>
<path d="M824.967 255V243.267L818 237.767V233H843V237.767L836.443 243.267V255" stroke="white" stroke-width="2"/>
<path d="M43.2951 213V202.333L38 197.333V193H57V197.333L52.0164 202.333V213" stroke="white" stroke-width="2"/>
<path d="M1394.97 182V166L1388 158.5V152H1413V158.5L1406.44 166V182" stroke="white" stroke-width="2"/>
<path d="M1191.5 257.5C1219.81 266.113 1235.69 266.176 1264 257.5M346.5 307C374.82 320.304 390.263 320.366 417 307" stroke="white" stroke-width="2"/>
<path d="M344.5 222C381.111 218.112 397.704 209.142 416.5 174.5" stroke="white" stroke-width="2"/>
<path d="M762 223.5C839.953 208.129 861.043 158.023 879.5 33.5" stroke="white" stroke-width="2"/>
</svg>
