<svg width="246" height="204" viewBox="0 0 246 204" fill="none" xmlns="http://www.w3.org/2000/svg">
<path d="M0.236694 203.843V0.739868H156.409C186.144 68.1397 215.955 135.711 245.905 203.598C244.95 203.707 244.374 203.829 243.799 203.83C232.672 203.843 221.546 203.807 210.421 203.882C208.801 203.893 208.026 203.385 207.382 201.897C196.062 175.766 184.667 149.666 173.342 123.538C172.502 121.602 171.579 120.658 169.196 120.672C147.582 120.793 125.968 120.776 104.354 120.689C102.264 120.681 101.361 121.394 100.569 123.243C89.4276 149.257 78.1874 175.227 67.0366 201.237C66.222 203.135 65.3114 203.923 63.0743 203.911C43.1936 203.795 23.3117 203.843 3.43103 203.843C2.44846 203.843 1.46589 203.843 0.235352 203.843H0.236694ZM35.1345 89.0469C49.9663 89.0469 64.5461 89.0802 79.126 88.9549C79.9032 88.9482 80.9991 87.7603 81.3911 86.8764C89.1636 69.3289 96.8549 51.7453 104.557 34.1658C104.897 33.3912 105.175 32.5886 105.562 31.5941H35.1345V89.0469ZM35.1065 191.364C35.2478 191.403 35.3891 191.443 35.5304 191.482C45.8214 168.031 56.1123 144.579 66.5166 120.87H35.1065V191.364ZM158.138 88.9895C150.947 72.5206 143.926 56.4449 136.641 39.7626C129.409 56.5395 122.466 72.6499 115.422 88.9895H158.138Z" fill="#562E84"/>
</svg>
