<svg width="261" height="204" viewBox="0 0 261 204" fill="none" xmlns="http://www.w3.org/2000/svg">
<path d="M15.2367 203.843V0.739868H171.409C201.144 68.1397 230.955 135.711 260.905 203.598C259.95 203.707 259.374 203.829 258.799 203.83C247.672 203.843 236.546 203.807 225.421 203.882C223.801 203.893 223.026 203.385 222.382 201.897C211.062 175.766 199.667 149.666 188.342 123.538C187.502 121.602 186.579 120.658 184.196 120.672C162.582 120.793 140.968 120.776 119.354 120.689C117.264 120.681 116.361 121.394 115.569 123.243C104.428 149.257 93.1874 175.227 82.0366 201.237C81.222 203.135 80.3114 203.923 78.0743 203.911C58.1936 203.795 38.3117 203.843 18.431 203.843C17.4485 203.843 16.4659 203.843 15.2354 203.843H15.2367ZM50.1345 89.0469C64.9663 89.0469 79.5461 89.0802 94.126 88.9549C94.9032 88.9482 95.9991 87.7603 96.3911 86.8764C104.164 69.3289 111.855 51.7453 119.557 34.1658C119.897 33.3912 120.175 32.5886 120.562 31.5941H50.1345V89.0469ZM50.1065 191.364C50.2478 191.403 50.3891 191.443 50.5304 191.482C60.8214 168.031 71.1123 144.579 81.5166 120.87H50.1065V191.364ZM173.138 88.9895C165.947 72.5206 158.926 56.4449 151.641 39.7626C144.409 56.5395 137.466 72.6499 130.422 88.9895H173.138Z" fill="#562E84"/>
<path d="M0.00134264 203.103V0H156.173C185.909 67.3998 215.719 134.972 245.67 202.858C244.715 202.967 244.139 203.089 243.563 203.09C232.436 203.103 221.311 203.067 210.185 203.142C208.565 203.153 207.791 202.645 207.147 201.157C195.827 175.026 184.432 148.926 173.106 122.798C172.266 120.862 171.344 119.918 168.96 119.932C147.346 120.053 125.733 120.036 104.119 119.949C102.028 119.941 101.126 120.654 100.334 122.504C89.1923 148.517 77.9521 174.488 66.8012 200.497C65.9866 202.395 65.076 203.183 62.8389 203.171C42.9583 203.055 23.0763 203.103 3.19568 203.103C2.21311 203.103 1.23054 203.103 0 203.103H0.00134264ZM34.8991 88.307C49.7309 88.307 64.3108 88.3403 78.8906 88.215C79.6679 88.2083 80.7638 87.0205 81.1557 86.1366C88.9283 68.589 96.6195 51.0055 104.321 33.4259C104.661 32.6513 104.94 31.8488 105.327 30.8542H34.8991V88.307ZM34.8711 190.625C35.0124 190.663 35.1538 190.703 35.2951 190.742C45.586 167.291 55.877 143.839 66.2813 120.13H34.8711V190.625ZM157.903 88.2497C150.711 71.7807 143.691 55.705 136.406 39.0227C129.174 55.7996 122.23 71.91 115.187 88.2497H157.903Z" fill="white"/>
</svg>
