<svg width="255" height="204" viewBox="0 0 255 204" fill="none" xmlns="http://www.w3.org/2000/svg">
<path d="M9.23669 203.843V0.739868H165.409C195.144 68.1397 224.955 135.711 254.905 203.598C253.95 203.707 253.374 203.829 252.799 203.83C241.672 203.843 230.546 203.807 219.421 203.882C217.801 203.893 217.026 203.385 216.382 201.897C205.062 175.766 193.667 149.666 182.342 123.538C181.502 121.602 180.579 120.658 178.196 120.672C156.582 120.793 134.968 120.776 113.354 120.689C111.264 120.681 110.361 121.394 109.569 123.243C98.4276 149.257 87.1874 175.227 76.0366 201.237C75.222 203.135 74.3114 203.923 72.0743 203.911C52.1936 203.795 32.3117 203.843 12.431 203.843C11.4485 203.843 10.4659 203.843 9.23535 203.843H9.23669ZM44.1345 89.0469C58.9663 89.0469 73.5461 89.0802 88.126 88.9549C88.9032 88.9482 89.9991 87.7603 90.3911 86.8764C98.1636 69.3289 105.855 51.7453 113.557 34.1658C113.897 33.3912 114.175 32.5886 114.562 31.5941H44.1345V89.0469ZM44.1065 191.364C44.2478 191.403 44.3891 191.443 44.5304 191.482C54.8214 168.031 65.1123 144.579 75.5166 120.87H44.1065V191.364ZM167.138 88.9895C159.947 72.5206 152.926 56.4449 145.641 39.7626C138.409 56.5395 131.466 72.6499 124.422 88.9895H167.138Z" fill="white"/>
<path d="M0.00134444 203.932V0H156.383C186.159 67.6747 216.009 135.522 246 203.685C245.044 203.795 244.467 203.917 243.891 203.918C232.749 203.932 221.608 203.895 210.468 203.97C208.846 203.981 208.07 203.471 207.425 201.977C196.09 175.74 184.68 149.533 173.339 123.299C172.498 121.355 171.574 120.407 169.187 120.421C147.544 120.543 125.902 120.525 104.259 120.438C102.165 120.43 101.262 121.146 100.469 123.003C89.3122 149.123 78.0569 175.199 66.891 201.315C66.0753 203.221 65.1636 204.012 62.9234 204C43.0161 203.883 23.1074 203.932 3.19998 203.932C2.21609 203.932 1.2322 203.932 0 203.932H0.00134444ZM34.946 88.6671C49.7978 88.6671 64.3973 88.7006 78.9967 88.5748C79.775 88.5681 80.8724 87.3753 81.2649 86.4878C89.0479 68.8687 96.7494 51.2135 104.462 33.5622C104.802 32.7845 105.081 31.9786 105.468 30.98H34.946V88.6671ZM34.918 191.402C35.0595 191.441 35.201 191.481 35.3425 191.52C45.6473 167.973 55.9521 144.425 66.3704 120.62H34.918V191.402ZM158.115 88.6096C150.914 72.0734 143.884 55.9322 136.59 39.1818C129.347 56.0272 122.395 72.2033 115.342 88.6096H158.115Z" fill="#562E84"/>
</svg>
