<svg width="418" height="113" viewBox="0 0 418 113" fill="none" xmlns="http://www.w3.org/2000/svg">
<g clip-path="url(#clip0_236_297)">
<path d="M0 91.748C9.136 65.14 17.98 38.459 26.533 11.71C31.563 12.451 36.596 13.162 41.632 13.843C38.475 24.189 35.276 34.526 32.033 44.853C36.545 45.482 41.059 46.087 45.576 46.668C48.71 36.307 51.8 25.938 54.848 15.559C59.889 16.187 64.933 16.784 69.98 17.351C62.358 44.379 54.443 71.349 46.234 98.257C40.863 97.595 35.495 96.901 30.13 96.174C33.449 85.731 36.723 75.279 39.953 64.816C35.373 64.215 30.795 63.59 26.219 62.941C22.879 73.369 19.494 83.787 16.066 94.194C10.707 93.411 5.352 92.596 0 91.748Z" fill="#00105E"/>
<path d="M52.496 99.014C59.165 86.09 65.685 73.119 72.053 60.103C79.617 44.65 86.362 31.162 92.401 19.669C98.927 20.286 105.457 20.851 111.99 21.367C111.914 34.117 111.444 48.568 110.555 64.718C109.83 77.968 109.115 91.218 108.408 104.469C102.433 104.011 96.461 103.513 90.491 102.975C91.112 98.144 91.731 93.313 92.348 88.482C87.264 88.026 82.182 87.542 77.103 87.028C75.062 91.713 73.004 96.394 70.93 101.07C64.782 100.426 58.637 99.742 52.496 99.014ZM83.413 72.392C86.993 72.741 90.573 73.075 94.155 73.395C95.737 60.769 97.307 48.141 98.863 35.513C93.828 47.835 88.677 60.128 83.413 72.392Z" fill="#00105E"/>
<path d="M142.371 107.825C134.466 107.417 128.487 103.881 124.521 97.29C120.549 90.699 118.993 81.948 119.758 71.063C120.395 61.98 122.447 53.745 125.842 46.34C129.236 38.936 133.713 33.129 139.261 28.885C144.811 24.643 150.841 22.673 157.436 22.957C162.295 23.166 166.526 24.54 170.162 27.093C168.979 33.023 167.782 38.952 166.572 44.879C164.116 42.672 161.166 41.5 157.704 41.354C152.071 41.116 147.36 43.907 143.494 49.755C139.631 55.604 137.426 62.669 136.951 70.976C136.255 82.962 140.112 89.216 148.528 89.621C151.937 89.783 155.299 89.027 158.594 87.351C157.316 93.428 156.023 99.502 154.716 105.575C150.815 107.295 146.692 108.047 142.373 107.825H142.371Z" fill="#00105E"/>
<path d="M162.418 107.53C168.277 80.016 173.839 52.466 179.105 24.883C184.174 25.014 189.244 25.116 194.314 25.186C192.05 37.912 189.723 50.631 187.334 63.344C193.722 50.706 199.931 38.022 205.961 25.295C212.19 25.325 218.42 25.309 224.649 25.248C220.496 33.1 216.265 40.932 211.957 48.742C209.123 53.845 206.878 57.643 205.258 60.146C203.638 62.651 201.679 65.11 199.382 67.52C201.025 70.912 202.903 76.187 205.046 83.341C207.577 91.715 210.156 100.081 212.784 108.44C206.456 108.443 200.129 108.402 193.801 108.317C191.167 95.328 188.613 82.331 186.141 69.328C183.697 82.235 181.189 95.135 178.617 108.027C173.217 107.894 167.817 107.728 162.418 107.53Z" fill="#00105E"/>
<path d="M217.603 87.116C218.55 81.146 219.485 75.175 220.406 69.204C230.237 69.142 240.068 68.97 249.897 68.687C249.11 74.678 248.309 80.668 247.496 86.658C237.533 86.922 227.569 87.075 217.603 87.116Z" fill="#00105E"/>
<path d="M253.892 107.795C257.851 79.95 261.514 52.088 264.881 24.214C268.964 24.044 273.046 23.855 277.127 23.646C285.923 23.194 292.671 25.475 297.46 30.585C302.311 35.847 305.194 44.172 306.022 55.603C307.042 69.694 304.894 81.546 299.391 91.112C296.147 96.752 292.091 100.778 287.258 103.17C282.424 105.561 276.565 106.922 269.718 107.214C264.444 107.438 259.168 107.632 253.892 107.795ZM272.497 88.706C272.953 88.685 273.41 88.664 273.866 88.643C277.638 88.469 281.029 86.645 284.002 83.183C286.343 80.385 288.076 76.765 289.205 72.335C290.333 67.905 290.739 63.22 290.443 58.284C290.104 52.642 288.959 48.427 287.023 45.629C285.214 42.982 282.645 41.752 279.298 41.927C278.887 41.948 278.476 41.97 278.065 41.991C276.301 57.566 274.444 73.138 272.495 88.706H272.497Z" fill="#00105E"/>
<path d="M305.326 105.23C309.473 91.292 313.466 77.337 317.303 63.365C321.862 46.777 325.983 32.27 329.782 19.856C336.309 19.25 342.832 18.593 349.352 17.886C351.646 30.429 353.868 44.716 355.995 60.749C357.744 73.903 359.502 87.056 361.269 100.207C355.308 100.867 349.344 101.487 343.377 102.068C343.09 97.206 342.802 92.344 342.511 87.483C337.43 87.979 332.347 88.447 327.261 88.885C326.126 93.868 324.974 98.849 323.805 103.829C317.648 104.338 311.488 104.805 305.326 105.23ZM330.744 73.33C334.325 73.008 337.906 72.672 341.485 72.321C340.695 59.621 339.893 46.921 339.077 34.223C336.417 47.266 333.639 60.302 330.744 73.33Z" fill="#00105E"/>
<path d="M374.536 98.672C374.954 90.003 375.344 81.335 375.707 72.669C372.433 63.03 369.65 53.286 367.333 43.443C365.24 34.484 363.168 25.521 361.117 16.554C366.68 15.898 372.24 15.205 377.796 14.476C379.954 28.008 382.123 41.539 384.305 55.067C387.383 40.843 390.305 26.611 393.073 12.375C399.111 11.508 405.144 10.596 411.172 9.64203C408.467 19.687 405.665 29.726 402.768 39.758C398.871 53.191 395.148 63.424 391.759 70.462C391.477 79.176 391.166 87.89 390.828 96.607C385.401 97.329 379.97 98.017 374.536 98.672Z" fill="#00105E"/>
<g opacity="0.65">
<path d="M6.24097 93.091C15.377 66.482 24.221 39.801 32.774 13.052C37.804 13.793 42.837 14.504 47.873 15.185C44.716 25.531 41.517 35.868 38.274 46.195C42.786 46.824 47.3 47.429 51.817 48.01C54.951 37.649 58.041 27.28 61.089 16.901C66.13 17.529 71.174 18.126 76.221 18.693C68.599 45.721 60.684 72.691 52.475 99.6C47.104 98.938 41.736 98.244 36.371 97.517C39.69 87.074 42.964 76.621 46.194 66.159C41.614 65.558 37.036 64.933 32.46 64.284C29.12 74.712 25.735 85.13 22.307 95.537C16.948 94.754 11.593 93.939 6.24097 93.091Z" fill="#DA2128"/>
<path d="M58.736 100.357C65.405 87.433 71.925 74.461 78.293 61.446C85.857 45.994 92.602 32.505 98.641 21.012C105.167 21.628 111.697 22.195 118.23 22.71C118.154 35.46 117.684 49.911 116.795 66.061C116.07 79.311 115.355 92.562 114.648 105.813C108.673 105.355 102.701 104.857 96.731 104.319C97.352 99.488 97.971 94.657 98.588 89.826C93.504 89.37 88.422 88.885 83.343 88.372C81.302 93.057 79.244 97.738 77.17 102.415C71.022 101.771 64.877 101.085 58.736 100.357ZM89.654 73.734C93.234 74.083 96.814 74.417 100.396 74.737C101.978 62.111 103.548 49.483 105.104 36.855C100.069 49.177 94.918 61.47 89.654 73.734Z" fill="#DA2128"/>
<path d="M148.612 109.168C140.707 108.761 134.728 105.224 130.762 98.632C126.79 92.041 125.234 83.29 125.999 72.406C126.636 63.323 128.688 55.088 132.083 47.683C135.477 40.279 139.954 34.472 145.502 30.228C151.052 25.985 157.082 24.015 163.677 24.3C168.536 24.509 172.768 25.883 176.403 28.436C175.22 34.366 174.023 40.295 172.813 46.222C170.357 44.015 167.407 42.843 163.945 42.697C158.312 42.459 153.601 45.25 149.735 51.098C145.872 56.947 143.667 64.012 143.192 72.319C142.496 84.305 146.353 90.559 154.769 90.964C158.178 91.126 161.54 90.37 164.835 88.694C163.557 94.771 162.264 100.846 160.957 106.919C157.056 108.639 152.933 109.391 148.614 109.169L148.612 109.168Z" fill="#DA2128"/>
<path d="M168.658 108.872C174.517 81.358 180.079 53.807 185.345 26.224C190.414 26.355 195.484 26.457 200.554 26.527C198.29 39.253 195.963 51.972 193.574 64.685C199.962 52.047 206.171 39.363 212.201 26.636C218.43 26.666 224.66 26.65 230.889 26.589C226.736 34.441 222.505 42.273 218.196 50.083C215.362 55.186 213.117 58.984 211.497 61.487C209.877 63.992 207.919 66.451 205.621 68.861C207.264 72.253 209.142 77.528 211.285 84.682C213.816 93.056 216.395 101.422 219.023 109.781C212.695 109.784 206.368 109.743 200.04 109.658C197.406 96.669 194.852 83.672 192.38 70.668C189.936 83.575 187.428 96.475 184.856 109.368C179.456 109.235 174.056 109.069 168.657 108.871L168.658 108.872Z" fill="#DA2128"/>
<path d="M223.844 88.458C224.791 82.488 225.725 76.517 226.647 70.546C236.478 70.484 246.309 70.312 256.138 70.029C255.351 76.02 254.551 82.01 253.737 88C243.774 88.264 233.81 88.417 223.844 88.458Z" fill="#DA2128"/>
<path d="M260.133 109.138C264.092 81.293 267.755 53.431 271.122 25.557C275.205 25.388 279.287 25.198 283.368 24.989C292.164 24.538 298.912 26.818 303.701 31.928C308.553 37.19 311.435 45.515 312.263 56.946C313.283 71.037 311.136 82.889 305.632 92.455C302.388 98.095 298.332 102.121 293.499 104.513C288.665 106.905 282.806 108.266 275.959 108.558C270.684 108.782 265.409 108.975 260.133 109.138ZM278.738 90.049C279.194 90.028 279.651 90.007 280.107 89.986C283.88 89.811 287.27 87.988 290.243 84.526C292.584 81.728 294.317 78.108 295.446 73.678C296.574 69.248 296.981 64.563 296.684 59.627C296.345 53.985 295.2 49.77 293.264 46.972C291.456 44.326 288.886 43.095 285.539 43.27C285.128 43.291 284.717 43.313 284.306 43.334C282.542 58.909 280.685 74.481 278.737 90.049H278.738Z" fill="#DA2128"/>
<path d="M311.567 106.573C315.714 92.635 319.707 78.679 323.544 64.708C328.103 48.12 332.224 33.613 336.023 21.199C342.55 20.593 349.073 19.936 355.593 19.229C357.887 31.771 360.11 46.059 362.236 62.092C363.985 75.246 365.743 88.399 367.51 101.551C361.549 102.211 355.585 102.831 349.618 103.412C349.331 98.55 349.043 93.688 348.752 88.826C343.671 89.322 338.588 89.79 333.502 90.228C332.367 95.211 331.215 100.193 330.046 105.173C323.889 105.682 317.728 106.149 311.566 106.574L311.567 106.573ZM336.985 74.672C340.566 74.35 344.147 74.014 347.726 73.663C346.936 60.963 346.134 48.263 345.318 35.565C342.658 48.608 339.88 61.644 336.985 74.672Z" fill="#DA2128"/>
<path d="M380.777 100.015C381.195 91.346 381.585 82.678 381.948 74.011C378.674 64.372 375.891 54.628 373.574 44.785C371.481 35.826 369.409 26.863 367.358 17.896C372.921 17.24 378.481 16.547 384.037 15.818C386.195 29.35 388.365 42.881 390.546 56.409C393.624 42.185 396.546 27.953 399.314 13.717C405.352 12.85 411.385 11.938 417.413 10.984C414.708 21.029 411.906 31.068 409.009 41.1C405.112 54.533 401.389 64.766 398 71.804C397.718 80.518 397.408 89.233 397.069 97.949C391.642 98.671 386.211 99.36 380.777 100.015Z" fill="#DA2128"/>
</g>
<path d="M3.96802 93.185C13.092 66.572 21.926 39.887 30.469 13.135C35.501 13.874 40.536 14.584 45.574 15.263C42.421 25.61 39.225 35.948 35.986 46.277C40.499 46.904 45.015 47.507 49.533 48.087C52.663 37.725 55.751 27.355 58.795 16.975C63.838 17.601 68.884 18.197 73.933 18.763C66.318 45.793 58.41 72.766 50.21 99.677C44.838 99.017 39.469 98.324 34.103 97.6C37.418 87.156 40.689 76.702 43.915 66.239C39.333 65.64 34.754 65.016 30.178 64.369C26.842 74.798 23.461 85.217 20.037 95.626C14.677 94.845 9.32102 94.032 3.96802 93.187V93.185Z" stroke="url(#paint0_linear_236_297)"/>
<path d="M56.474 100.43C63.14 87.504 69.656 74.531 76.022 61.514C83.583 46.059 90.326 32.569 96.364 21.075C102.893 21.69 109.425 22.255 115.961 22.769C115.888 35.519 115.42 49.971 114.535 66.12C113.813 79.37 113.1 92.621 112.396 105.872C106.42 105.415 100.447 104.918 94.476 104.382C95.096 99.551 95.714 94.72 96.33 89.889C91.245 89.434 86.162 88.951 81.081 88.438C79.041 93.124 76.984 97.805 74.911 102.482C68.762 101.84 62.616 101.156 56.474 100.43ZM87.389 73.8C90.97 74.148 94.551 74.482 98.134 74.801C99.714 62.175 101.28 49.547 102.834 36.917C97.8 49.24 92.652 61.535 87.389 73.8Z" stroke="url(#paint1_linear_236_297)"/>
<path d="M146.364 109.224C138.458 108.817 132.477 105.281 128.51 98.69C124.536 92.1 122.978 83.349 123.741 72.464C124.376 63.381 126.428 55.146 129.822 47.74C133.216 40.335 137.693 34.528 143.243 30.283C148.794 26.04 154.827 24.07 161.424 24.354C166.285 24.562 170.518 25.936 174.155 28.489C172.972 34.419 171.775 40.348 170.565 46.275C168.108 44.068 165.157 42.896 161.693 42.75C156.058 42.512 151.345 45.304 147.479 51.153C143.615 57.002 141.411 64.067 140.937 72.375C140.242 84.36 144.101 90.614 152.519 91.018C155.929 91.18 159.292 90.424 162.587 88.748C161.309 94.825 160.016 100.9 158.71 106.973C154.808 108.693 150.685 109.446 146.365 109.224H146.364Z" stroke="url(#paint2_linear_236_297)"/>
<path d="M166.414 108.926C172.272 81.412 177.835 53.861 183.102 26.278C188.173 26.409 193.245 26.511 198.317 26.582C196.052 39.307 193.724 52.027 191.334 64.74C197.724 52.103 203.936 39.419 209.969 26.692C216.201 26.722 222.433 26.707 228.664 26.646C224.509 34.498 220.275 42.329 215.965 50.139C213.13 55.242 210.884 59.04 209.263 61.543C207.642 64.047 205.684 66.507 203.385 68.917C205.028 72.309 206.907 77.584 209.05 84.738C211.581 93.112 214.16 101.478 216.788 109.837C210.459 109.84 204.131 109.799 197.802 109.713C195.168 96.724 192.614 83.727 190.141 70.723C187.697 83.63 185.188 96.53 182.616 109.423C177.215 109.29 171.814 109.124 166.415 108.927L166.414 108.926Z" stroke="url(#paint3_linear_236_297)"/>
<path d="M221.61 88.514C222.558 82.544 223.493 76.574 224.415 70.602C234.249 70.541 244.082 70.37 253.914 70.089C253.125 76.08 252.324 82.07 251.509 88.059C241.544 88.322 231.577 88.474 221.61 88.514Z" stroke="url(#paint4_linear_236_297)"/>
<path d="M257.903 109.198C261.867 81.353 265.537 53.492 268.912 25.619C272.996 25.45 277.08 25.262 281.163 25.054C289.962 24.605 296.712 26.887 301.502 31.998C306.353 37.262 309.234 45.587 310.058 57.019C311.073 71.11 308.922 82.961 303.414 92.525C300.167 98.164 296.11 102.189 291.275 104.579C286.439 106.97 280.58 108.33 273.731 108.62C268.456 108.843 263.179 109.036 257.902 109.198H257.903ZM276.515 90.112C276.972 90.091 277.428 90.071 277.885 90.05C281.658 89.876 285.05 88.054 288.025 84.593C290.367 81.795 292.102 78.176 293.232 73.747C294.362 69.317 294.769 64.633 294.474 59.696C294.137 54.054 292.992 49.838 291.057 47.04C289.249 44.393 286.679 43.162 283.331 43.336C282.92 43.357 282.509 43.378 282.097 43.399C280.328 58.973 278.467 74.545 276.514 90.113L276.515 90.112Z" stroke="url(#paint5_linear_236_297)"/>
<path d="M309.346 106.644C313.498 92.708 317.496 78.753 321.34 64.783C325.906 48.196 330.034 33.691 333.84 21.278C340.37 20.674 346.896 20.02 353.418 19.315C355.706 31.859 357.923 46.146 360.043 62.181C361.786 75.336 363.538 88.489 365.299 101.642C359.337 102.299 353.372 102.917 347.404 103.495C347.119 98.633 346.833 93.771 346.544 88.909C341.462 89.404 336.377 89.869 331.291 90.306C330.154 95.288 329 100.27 327.829 105.249C321.67 105.756 315.509 106.221 309.346 106.644ZM334.78 74.753C338.362 74.432 341.944 74.097 345.524 73.748C344.739 61.047 343.942 48.348 343.132 35.649C340.465 48.691 337.681 61.726 334.78 74.753Z" stroke="url(#paint6_linear_236_297)"/>
<path d="M378.568 100.113C378.99 91.444 379.385 82.777 379.752 74.11C376.482 64.469 373.704 54.724 371.391 44.879C369.302 35.919 367.234 26.955 365.187 17.988C370.753 17.334 376.315 16.644 381.874 15.917C384.025 29.45 386.188 42.982 388.363 56.512C391.449 42.289 394.381 28.059 397.158 13.824C403.199 12.96 409.234 12.052 415.265 11.1C412.552 21.144 409.744 31.181 406.839 41.211C402.933 54.642 399.203 64.874 395.809 71.909C395.522 80.623 395.207 89.338 394.864 98.054C389.435 98.773 384.004 99.459 378.569 100.113H378.568Z" stroke="url(#paint7_linear_236_297)"/>
<g opacity="0.64">
<path d="M7.23401 98.697C15.939 71.952 24.378 45.143 32.551 18.274C37.61 18.945 42.672 19.586 47.736 20.195C44.727 30.586 41.678 40.968 38.591 51.342C43.128 51.907 47.667 52.449 52.208 52.966C55.186 42.56 58.124 32.147 61.023 21.725C66.09 22.281 71.16 22.807 76.231 23.302C68.997 50.438 61.496 77.523 53.728 104.554C48.33 103.969 42.933 103.351 37.539 102.7C40.687 92.208 43.795 81.707 46.863 71.197C42.258 70.661 37.655 70.101 33.054 69.516C29.875 79.992 26.656 90.46 23.397 100.918C18.007 100.211 12.62 99.471 7.23601 98.698L7.23401 98.697Z" fill="#00105E"/>
<path d="M60.02 105.221C66.486 92.199 72.807 79.133 78.982 66.025C86.317 50.463 92.871 36.877 98.753 25.298C105.308 25.82 111.864 26.292 118.422 26.712C118.538 39.463 118.292 53.92 117.663 70.082C117.152 83.342 116.656 96.604 116.176 109.866C110.179 109.495 104.183 109.084 98.188 108.633C98.727 103.793 99.266 98.953 99.803 94.113C94.698 93.731 89.595 93.32 84.492 92.879C82.524 97.594 80.541 102.305 78.541 107.012C72.365 106.457 66.191 105.86 60.019 105.22L60.02 105.221ZM90.577 78.15C94.172 78.447 97.768 78.73 101.365 78.998C102.743 66.348 104.114 53.698 105.478 41.047C100.621 53.441 95.653 65.809 90.577 78.15Z" fill="#00105E"/>
<path d="M150.275 112.722C142.346 112.431 136.292 108.982 132.205 102.45C128.111 95.917 126.405 87.189 126.993 76.294C127.483 67.202 129.408 58.938 132.695 51.483C135.981 44.03 140.378 38.158 145.875 33.832C151.371 29.508 157.386 27.45 163.998 27.636C168.871 27.773 173.131 29.084 176.813 31.583C175.718 37.53 174.611 43.476 173.49 49.42C170.994 47.25 168.02 46.122 164.549 46.027C158.9 45.872 154.222 48.733 150.44 54.638C146.661 60.543 144.563 67.641 144.223 75.954C143.722 87.949 147.694 94.147 156.134 94.427C159.554 94.539 162.909 93.733 166.182 92.009C165.003 98.104 163.811 104.197 162.606 110.289C158.727 112.067 154.608 112.88 150.275 112.722Z" fill="#00105E"/>
<path d="M170.358 112.128C175.755 84.528 180.882 56.897 185.74 29.239C190.82 29.295 195.9 29.32 200.98 29.315C198.905 42.073 196.773 54.827 194.584 67.574C200.779 54.842 206.8 42.066 212.646 29.25C218.885 29.186 225.122 29.077 231.358 28.922C227.32 36.836 223.205 44.73 219.013 52.604C216.255 57.749 214.068 61.579 212.485 64.107C210.903 66.636 208.981 69.124 206.72 71.569C208.42 74.936 210.387 80.182 212.652 87.303C215.326 95.637 218.051 103.964 220.826 112.281C214.489 112.38 208.151 112.434 201.812 112.444C198.95 99.496 196.174 86.539 193.486 73.573C191.248 86.515 188.951 99.452 186.596 112.382C181.184 112.33 175.771 112.245 170.359 112.127L170.358 112.128Z" fill="#00105E"/>
<path d="M225.29 90.888C226.139 84.905 226.976 78.92 227.802 72.935C237.646 72.725 247.486 72.404 257.32 71.972C256.63 77.974 255.928 83.975 255.214 89.976C245.244 90.392 235.269 90.697 225.29 90.888Z" fill="#00105E"/>
<path d="M261.977 111.014C265.459 83.114 268.671 55.201 271.615 27.279C275.698 27.047 279.781 26.796 283.862 26.525C292.657 25.94 299.442 28.117 304.312 33.153C309.247 38.34 312.261 46.62 313.274 58.036C314.522 72.108 312.576 83.991 307.23 93.638C304.079 99.326 300.09 103.413 295.295 105.879C290.499 108.344 284.659 109.795 277.809 110.191C272.533 110.496 267.256 110.77 261.977 111.014ZM280.274 91.645C280.731 91.617 281.187 91.589 281.644 91.561C285.416 91.329 288.779 89.455 291.696 85.948C293.992 83.114 295.666 79.469 296.723 75.023C297.777 70.576 298.108 65.887 297.731 60.956C297.299 55.32 296.087 51.123 294.107 48.355C292.255 45.737 289.665 44.546 286.319 44.771C285.908 44.799 285.497 44.826 285.086 44.854C283.566 60.453 281.962 76.051 280.274 91.645Z" fill="#00105E"/>
<path d="M313.411 107.661C317.318 93.664 321.077 79.65 324.686 65.623C328.974 48.968 332.865 34.401 336.473 21.93C342.99 21.224 349.503 20.467 356.01 19.66C358.498 32.165 360.948 46.416 363.342 62.413C365.309 75.537 367.291 88.658 369.289 101.778C363.339 102.53 357.385 103.242 351.427 103.914C351.055 99.058 350.682 94.202 350.307 89.347C345.233 89.922 340.157 90.467 335.077 90.984C334.027 95.983 332.961 100.981 331.878 105.977C325.726 106.581 319.57 107.142 313.411 107.661ZM338.297 75.379C341.874 75.002 345.449 74.611 349.023 74.205C348.02 61.52 347.01 48.836 345.993 36.153C343.54 49.234 340.975 62.31 338.298 75.379H338.297Z" fill="#00105E"/>
<path d="M382.53 100.038C382.795 91.366 383.035 82.695 383.25 74.026C379.813 64.441 376.869 54.742 374.392 44.937C372.154 36.012 369.939 27.082 367.749 18.149C373.3 17.408 378.846 16.63 384.387 15.815C386.756 29.312 389.143 42.806 391.55 56.297C394.389 42.029 397.08 27.756 399.621 13.48C405.64 12.52 411.654 11.516 417.661 10.469C415.118 20.554 412.481 30.634 409.751 40.707C406.077 54.197 402.53 64.484 399.261 71.572C399.128 80.287 398.969 89.003 398.785 97.721C393.371 98.527 387.953 99.299 382.531 100.039L382.53 100.038Z" fill="#00105E"/>
</g>
<path d="M1.46301 90.571C10.599 63.963 19.443 37.282 27.996 10.534C33.026 11.275 38.059 11.986 43.095 12.667C39.938 23.013 36.739 33.35 33.496 43.677C38.008 44.306 42.522 44.911 47.039 45.492C50.173 35.131 53.263 24.762 56.311 14.383C61.352 15.011 66.396 15.608 71.443 16.175C63.821 43.203 55.906 70.173 47.697 97.08C42.326 96.418 36.958 95.724 31.593 94.997C34.912 84.554 38.186 74.102 41.416 63.64C36.836 63.039 32.258 62.414 27.682 61.765C24.342 72.193 20.957 82.61 17.529 93.017C12.17 92.234 6.81501 91.419 1.46301 90.571Z" fill="#DA2128"/>
<path d="M53.958 97.837C60.627 84.913 67.147 71.942 73.515 58.927C81.079 43.475 87.824 29.986 93.863 18.493C100.389 19.11 106.919 19.675 113.452 20.191C113.376 32.941 112.906 47.392 112.017 63.542C111.292 76.792 110.577 90.042 109.87 103.293C103.895 102.835 97.923 102.337 91.953 101.799C92.574 96.968 93.193 92.138 93.81 87.307C88.726 86.851 83.644 86.367 78.565 85.853C76.524 90.538 74.466 95.219 72.392 99.895C66.244 99.251 60.099 98.566 53.958 97.838V97.837ZM84.876 71.215C88.456 71.564 92.036 71.898 95.618 72.218C97.2 59.592 98.77 46.964 100.326 34.336C95.291 46.658 90.14 58.951 84.876 71.215Z" fill="#DA2128"/>
<path d="M143.834 106.649C135.929 106.241 129.95 102.705 125.984 96.114C122.012 89.523 120.456 80.772 121.221 69.888C121.858 60.805 123.91 52.57 127.305 45.165C130.7 37.761 135.176 31.954 140.724 27.71C146.274 23.467 152.304 21.497 158.899 21.782C163.758 21.991 167.989 23.365 171.625 25.918C170.442 31.848 169.245 37.777 168.035 43.704C165.579 41.497 162.629 40.325 159.167 40.179C153.534 39.941 148.822 42.732 144.957 48.58C141.094 54.429 138.888 61.494 138.414 69.801C137.718 81.787 141.575 88.041 149.991 88.446C153.4 88.608 156.762 87.852 160.057 86.176C158.778 92.252 157.486 98.327 156.179 104.4C152.278 106.12 148.156 106.872 143.836 106.65L143.834 106.649Z" fill="#DA2128"/>
<path d="M163.88 106.353C169.739 78.839 175.301 51.289 180.567 23.706C185.636 23.837 190.706 23.939 195.776 24.009C193.512 36.735 191.185 49.454 188.795 62.167C195.183 49.529 201.393 36.845 207.422 24.118C213.651 24.148 219.881 24.132 226.11 24.071C221.957 31.923 217.726 39.755 213.418 47.565C210.584 52.668 208.339 56.466 206.719 58.969C205.099 61.474 203.141 63.933 200.843 66.343C202.485 69.735 204.364 75.01 206.507 82.164C209.038 90.537 211.617 98.904 214.245 107.262C207.917 107.265 201.59 107.224 195.262 107.139C192.628 94.15 190.074 81.154 187.602 68.15C185.158 81.056 182.65 93.956 180.078 106.849C174.678 106.716 169.278 106.55 163.879 106.352L163.88 106.353Z" fill="#DA2128"/>
<path d="M219.066 85.94C220.013 79.97 220.947 73.999 221.869 68.028C231.7 67.966 241.531 67.794 251.36 67.511C250.573 73.502 249.772 79.492 248.959 85.482C238.996 85.746 229.032 85.899 219.066 85.94Z" fill="#DA2128"/>
<path d="M255.355 106.618C259.314 78.773 262.977 50.911 266.344 23.038C270.427 22.869 274.509 22.679 278.59 22.47C287.386 22.019 294.134 24.299 298.923 29.409C303.774 34.671 306.657 42.996 307.485 54.427C308.505 68.517 306.357 80.37 300.854 89.936C297.609 95.576 293.554 99.601 288.721 101.994C283.887 104.385 278.029 105.746 271.181 106.038C265.906 106.262 260.631 106.456 255.355 106.619V106.618ZM273.96 87.53C274.416 87.509 274.873 87.488 275.329 87.467C279.101 87.292 282.492 85.469 285.465 82.007C287.806 79.208 289.539 75.589 290.668 71.159C291.796 66.729 292.202 62.045 291.906 57.108C291.567 51.466 290.422 47.251 288.486 44.453C286.677 41.807 284.108 40.576 280.761 40.751C280.35 40.772 279.939 40.794 279.528 40.815C277.764 56.39 275.907 71.962 273.958 87.53H273.96Z" fill="#DA2128"/>
<path d="M306.789 104.053C310.936 90.116 314.929 76.16 318.766 62.189C323.326 45.601 327.446 31.095 331.245 18.68C337.772 18.074 344.295 17.417 350.815 16.71C353.109 29.252 355.331 43.54 357.458 59.573C359.207 72.727 360.965 85.879 362.731 99.031C356.77 99.691 350.806 100.311 344.84 100.892C344.553 96.03 344.265 91.169 343.974 86.307C338.893 86.804 333.81 87.271 328.725 87.709C327.59 92.692 326.438 97.673 325.269 102.653C319.112 103.162 312.952 103.628 306.789 104.053ZM332.207 72.154C335.788 71.832 339.369 71.496 342.948 71.145C342.158 58.445 341.356 45.745 340.54 33.047C337.88 46.09 335.102 59.126 332.207 72.154Z" fill="#DA2128"/>
<path d="M375.999 97.496C376.417 88.827 376.807 80.16 377.17 71.493C373.896 61.854 371.113 52.11 368.796 42.267C366.703 33.308 364.631 24.345 362.58 15.378C368.143 14.722 373.703 14.029 379.259 13.3C381.417 26.832 383.586 40.363 385.768 53.891C388.846 39.667 391.768 25.435 394.536 11.199C400.574 10.332 406.607 9.42 412.635 8.466C409.93 18.511 407.128 28.55 404.231 38.582C400.334 52.015 396.61 62.248 393.222 69.286C392.94 77.999 392.629 86.714 392.291 95.43C386.864 96.152 381.433 96.841 375.999 97.496Z" fill="#DA2128"/>
<path d="M2.68799 83.947C11.824 57.339 20.668 30.658 29.221 3.909C34.251 4.65 39.284 5.361 44.32 6.042C41.163 16.388 37.964 26.725 34.721 37.052C39.233 37.681 43.747 38.286 48.264 38.867C51.398 28.506 54.488 18.137 57.536 7.758C62.577 8.386 67.621 8.983 72.668 9.55C65.046 36.578 57.131 63.548 48.922 90.456C43.551 89.794 38.183 89.1 32.818 88.373C36.137 77.93 39.411 67.478 42.641 57.015C38.061 56.414 33.483 55.789 28.907 55.14C25.567 65.568 22.182 75.986 18.754 86.393C13.395 85.61 8.03999 84.795 2.68799 83.947Z" fill="#724099"/>
<path d="M55.184 91.213C61.853 78.289 68.373 65.318 74.741 52.303C82.305 36.851 89.049 23.362 95.089 11.869C101.615 12.486 108.145 13.051 114.678 13.567C114.602 26.317 114.131 40.769 113.243 56.918C112.518 70.168 111.803 83.418 111.096 96.669C105.121 96.211 99.149 95.713 93.179 95.175C93.8 90.344 94.419 85.514 95.036 80.682C89.952 80.226 84.87 79.742 79.791 79.228C77.75 83.913 75.692 88.594 73.618 93.27C67.47 92.626 61.325 91.941 55.184 91.213ZM86.101 64.591C89.681 64.94 93.261 65.274 96.843 65.594C98.425 52.968 99.995 40.34 101.551 27.712C96.516 40.034 91.365 52.327 86.101 64.591Z" fill="#724099"/>
<path d="M145.059 100.025C137.154 99.618 131.175 96.081 127.209 89.49C123.237 82.899 121.681 74.148 122.446 63.264C123.083 54.181 125.135 45.946 128.53 38.541C131.925 31.137 136.4 25.33 141.949 21.086C147.499 16.843 153.529 14.874 160.124 15.158C164.984 15.367 169.214 16.741 172.85 19.294C171.667 25.224 170.47 31.153 169.26 37.08C166.804 34.873 163.854 33.701 160.392 33.555C154.759 33.317 150.048 36.108 146.182 41.956C142.319 47.805 140.114 54.87 139.639 63.177C138.943 75.162 142.8 81.417 151.216 81.822C154.625 81.984 157.987 81.228 161.282 79.552C160.003 85.629 158.711 91.703 157.404 97.776C153.503 99.496 149.38 100.248 145.061 100.026L145.059 100.025Z" fill="#724099"/>
<path d="M165.105 99.729C170.964 72.215 176.526 44.665 181.792 17.082C186.861 17.213 191.931 17.315 197.001 17.385C194.737 30.111 192.41 42.83 190.021 55.543C196.409 42.905 202.618 30.221 208.648 17.494C214.877 17.524 221.106 17.508 227.335 17.447C223.182 25.299 218.952 33.131 214.643 40.941C211.809 46.044 209.565 49.842 207.944 52.345C206.324 54.85 204.366 57.309 202.068 59.719C203.711 63.111 205.589 68.386 207.732 75.54C210.263 83.914 212.842 92.28 215.47 100.639C209.142 100.642 202.815 100.601 196.487 100.516C193.853 87.527 191.299 74.53 188.827 61.527C186.383 74.434 183.875 87.334 181.303 100.226C175.903 100.093 170.504 99.927 165.105 99.729Z" fill="#724099"/>
<path d="M220.291 79.315C221.238 73.345 222.172 67.374 223.094 61.403C232.925 61.341 242.756 61.169 252.584 60.886C251.797 66.877 250.996 72.867 250.183 78.857C240.221 79.121 230.256 79.274 220.291 79.315Z" fill="#724099"/>
<path d="M256.579 99.994C260.538 72.149 264.201 44.287 267.568 16.413C271.651 16.243 275.733 16.054 279.814 15.845C288.61 15.394 295.358 17.674 300.147 22.784C304.998 28.046 307.881 36.371 308.709 47.802C309.728 61.892 307.581 73.745 302.078 83.311C298.834 88.95 294.778 92.977 289.945 95.369C285.111 97.761 279.253 99.122 272.405 99.413C267.13 99.637 261.855 99.831 256.579 99.994ZM275.184 80.905C275.64 80.884 276.097 80.863 276.553 80.842C280.326 80.668 283.716 78.845 286.689 75.382C289.03 72.584 290.763 68.964 291.892 64.534C293.02 60.104 293.426 55.419 293.13 50.483C292.791 44.841 291.646 40.626 289.71 37.828C287.901 35.181 285.333 33.951 281.985 34.126C281.574 34.147 281.163 34.169 280.752 34.19C278.988 49.765 277.131 65.337 275.182 80.905H275.184Z" fill="#724099"/>
<path d="M308.013 97.429C312.16 83.491 316.153 69.536 319.99 55.564C324.55 38.976 328.67 24.469 332.469 12.055C338.996 11.449 345.519 10.792 352.039 10.085C354.333 22.627 356.555 36.915 358.682 52.948C360.431 66.102 362.189 79.255 363.956 92.406C357.995 93.066 352.031 93.686 346.065 94.267C345.778 89.405 345.489 84.543 345.199 79.682C340.118 80.179 335.035 80.646 329.949 81.084C328.814 86.067 327.662 91.048 326.493 96.028C320.336 96.537 314.175 97.004 308.013 97.429ZM333.431 65.529C337.012 65.207 340.593 64.871 344.172 64.52C343.382 51.82 342.58 39.12 341.764 26.422C339.104 39.465 336.326 52.501 333.431 65.529Z" fill="#724099"/>
<path d="M377.223 90.872C377.641 82.203 378.031 73.535 378.394 64.869C375.12 55.23 372.338 45.486 370.02 35.643C367.927 26.684 365.855 17.721 363.804 8.75398C369.367 8.09798 374.927 7.40498 380.483 6.67598C382.641 20.208 384.81 33.739 386.992 47.267C390.07 33.043 392.992 18.811 395.76 4.57498C401.798 3.70798 407.831 2.79598 413.859 1.84198C411.154 11.887 408.352 21.926 405.455 31.958C401.558 45.391 397.835 55.625 394.446 62.662C394.164 71.376 393.854 80.09 393.515 88.807C388.088 89.529 382.657 90.217 377.223 90.872Z" fill="#724099"/>
<path d="M5.46301 86.187C14.599 59.578 23.443 32.897 31.996 6.14801C37.026 6.88901 42.059 7.60001 47.095 8.28101C43.938 18.627 40.739 28.964 37.496 39.291C42.008 39.92 46.522 40.525 51.039 41.106C54.173 30.745 57.263 20.376 60.311 9.99701C65.352 10.625 70.396 11.222 75.443 11.789C67.821 38.817 59.906 65.787 51.697 92.695C46.326 92.033 40.958 91.339 35.593 90.612C38.912 80.169 42.186 69.717 45.416 59.254C40.836 58.653 36.258 58.028 31.682 57.379C28.342 67.807 24.957 78.225 21.529 88.632C16.17 87.849 10.815 87.035 5.46301 86.187Z" fill="black"/>
<path d="M57.958 93.452C64.627 80.528 71.147 67.557 77.515 54.541C85.079 39.088 91.823 25.6 97.863 14.107C104.389 14.723 110.919 15.289 117.452 15.805C117.376 28.555 116.905 43.006 116.017 59.156C115.292 72.406 114.577 85.656 113.87 98.907C107.895 98.449 101.923 97.951 95.953 97.413C96.574 92.582 97.193 87.751 97.81 82.92C92.726 82.464 87.644 81.98 82.565 81.466C80.524 86.151 78.466 90.832 76.392 95.508C70.244 94.864 64.099 94.179 57.958 93.451V93.452ZM88.876 66.83C92.456 67.179 96.036 67.513 99.618 67.833C101.2 55.207 102.77 42.579 104.326 29.951C99.291 42.273 94.14 54.566 88.876 66.83Z" fill="black"/>
<path d="M147.834 102.264C139.929 101.856 133.95 98.32 129.984 91.729C126.012 85.138 124.456 76.387 125.221 65.502C125.858 56.419 127.91 48.184 131.305 40.779C134.7 33.375 139.176 27.568 144.724 23.324C150.274 19.081 156.304 17.112 162.899 17.396C167.758 17.605 171.989 18.979 175.625 21.532C174.442 27.462 173.245 33.391 172.035 39.318C169.579 37.111 166.629 35.939 163.167 35.793C157.534 35.555 152.823 38.346 148.957 44.194C145.094 50.043 142.889 57.108 142.414 65.415C141.718 77.401 145.575 83.655 153.991 84.06C157.4 84.222 160.762 83.466 164.057 81.79C162.778 87.867 161.486 93.941 160.179 100.014C156.278 101.734 152.155 102.486 147.836 102.264H147.834Z" fill="black"/>
<path d="M167.88 101.968C173.739 74.454 179.301 46.904 184.567 19.321C189.636 19.452 194.706 19.554 199.776 19.624C197.512 32.35 195.185 45.069 192.796 57.782C199.184 45.144 205.393 32.46 211.423 19.733C217.652 19.763 223.882 19.747 230.111 19.686C225.958 27.538 221.727 35.37 217.419 43.18C214.585 48.283 212.34 52.081 210.72 54.584C209.1 57.089 207.142 59.548 204.844 61.958C206.486 65.35 208.365 70.625 210.508 77.779C213.039 86.153 215.618 94.519 218.246 102.878C211.918 102.881 205.591 102.84 199.263 102.755C196.629 89.766 194.075 76.769 191.603 63.766C189.159 76.673 186.651 89.573 184.079 102.465C178.679 102.332 173.279 102.166 167.88 101.968Z" fill="black"/>
<path d="M223.066 81.554C224.013 75.584 224.948 69.613 225.869 63.642C235.7 63.58 245.531 63.408 255.36 63.125C254.573 69.116 253.772 75.106 252.959 81.096C242.996 81.36 233.032 81.513 223.066 81.554Z" fill="black"/>
<path d="M259.355 102.234C263.314 74.389 266.977 46.527 270.344 18.653C274.427 18.483 278.509 18.294 282.59 18.085C291.386 17.633 298.134 19.914 302.923 25.024C307.774 30.286 310.657 38.611 311.485 50.042C312.505 64.133 310.357 75.985 304.854 85.551C301.609 91.191 297.554 95.216 292.721 97.609C287.887 100.001 282.029 101.362 275.181 101.653C269.907 101.877 264.631 102.071 259.355 102.234ZM277.96 83.145C278.416 83.124 278.873 83.103 279.329 83.082C283.102 82.907 286.492 81.085 289.465 77.622C291.806 74.824 293.539 71.204 294.668 66.774C295.796 62.344 296.202 57.659 295.906 52.723C295.567 47.081 294.422 42.866 292.486 40.068C290.677 37.421 288.109 36.191 284.761 36.366C284.35 36.387 283.939 36.409 283.528 36.43C281.764 52.005 279.907 67.577 277.958 83.145H277.96Z" fill="black"/>
<path d="M310.789 99.669C314.936 85.731 318.929 71.776 322.766 57.804C327.325 41.216 331.446 26.71 335.245 14.295C341.772 13.689 348.295 13.032 354.815 12.325C357.109 24.867 359.331 39.155 361.458 55.188C363.207 68.342 364.965 81.495 366.732 94.646C360.771 95.306 354.807 95.926 348.84 96.507C348.553 91.645 348.265 86.783 347.974 81.922C342.893 82.418 337.81 82.886 332.724 83.324C331.589 88.307 330.437 93.288 329.268 98.268C323.11 98.777 316.95 99.244 310.788 99.669H310.789ZM336.207 67.769C339.788 67.447 343.369 67.111 346.948 66.76C346.158 54.06 345.356 41.36 344.54 28.662C341.88 41.705 339.102 54.741 336.207 67.769Z" fill="black"/>
<path d="M379.999 93.111C380.417 84.442 380.807 75.774 381.17 67.108C377.896 57.469 375.114 47.725 372.796 37.882C370.703 28.923 368.631 19.96 366.58 10.993C372.143 10.337 377.703 9.64399 383.259 8.91499C385.417 22.447 387.586 35.978 389.768 49.506C392.846 35.282 395.768 21.05 398.536 6.81399C404.574 5.94699 410.607 5.03499 416.635 4.08099C413.93 14.126 411.128 24.165 408.231 34.197C404.335 47.63 400.611 57.863 397.222 64.901C396.94 73.615 396.63 82.329 396.291 91.046C390.864 91.768 385.433 92.456 379.999 93.111Z" fill="black"/>
<path d="M6.01894 83.862C15.1439 57.25 23.9779 30.565 32.5199 3.81201C37.5519 4.55101 42.5869 5.26001 47.6249 5.93901C44.4719 16.286 41.2759 26.625 38.0379 36.953C42.5519 37.58 47.0679 38.183 51.5859 38.763C54.7159 28.401 57.8029 18.03 60.8469 7.65001C65.8899 8.27601 70.9369 8.87101 75.9849 9.43701C68.3719 36.468 60.4659 63.441 52.2669 90.352C46.8939 89.692 41.5249 89 36.1579 88.275C39.4729 77.831 42.7429 67.377 45.9689 56.913C41.3869 56.314 36.8069 55.691 32.2299 55.044C28.8939 65.473 25.5129 75.892 22.0889 86.301C16.7279 85.52 11.3719 84.707 6.01894 83.862Z" stroke="url(#paint8_linear_236_297)"/>
<path d="M58.531 91.107C65.196 78.18 71.712 65.207 78.077 52.189C85.637 36.734 92.378 23.243 98.415 11.748C104.944 12.362 111.477 12.926 118.012 13.44C117.941 26.19 117.476 40.642 116.593 56.792C115.873 70.042 115.162 83.293 114.46 96.544C108.483 96.088 102.509 95.592 96.537 95.056C97.156 90.225 97.774 85.394 98.389 80.563C93.304 80.109 88.22 79.626 83.139 79.114C81.099 83.8 79.043 88.482 76.97 93.159C70.82 92.518 64.674 91.833 58.531 91.107ZM89.447 64.473C93.028 64.821 96.61 65.154 100.193 65.473C101.771 52.846 103.336 40.218 104.888 27.589C99.856 39.913 94.709 52.208 89.447 64.473Z" stroke="url(#paint9_linear_236_297)"/>
<path d="M148.434 99.888C140.527 99.483 134.545 95.948 130.575 89.359C126.599 82.769 125.04 74.018 125.801 63.134C126.435 54.05 128.485 45.815 131.878 38.409C135.271 31.004 139.747 25.195 145.296 20.949C150.846 16.705 156.878 14.733 163.476 15.015C168.337 15.223 172.57 16.596 176.208 19.148C175.026 25.078 173.831 31.007 172.622 36.935C170.164 34.729 167.213 33.558 163.749 33.413C158.114 33.177 153.402 35.968 149.537 41.818C145.675 47.668 143.471 54.734 142.999 63.041C142.307 75.027 146.167 81.281 154.586 81.683C157.996 81.844 161.359 81.087 164.654 79.411C163.377 85.488 162.086 91.563 160.78 97.636C156.878 99.357 152.755 100.111 148.434 99.89V99.888Z" stroke="url(#paint10_linear_236_297)"/>
<path d="M6.01894 83.862C15.1439 57.25 23.9779 30.565 32.5199 3.81201C37.5519 4.55101 42.5869 5.26001 47.6249 5.93901C44.4719 16.286 41.2759 26.625 38.0379 36.953C42.5519 37.58 47.0679 38.183 51.5859 38.763C54.7159 28.401 57.8029 18.03 60.8469 7.65001C65.8899 8.27601 70.9369 8.87101 75.9849 9.43701C68.3719 36.468 60.4659 63.441 52.2669 90.352C46.8939 89.692 41.5249 89 36.1579 88.275C39.4729 77.831 42.7429 67.377 45.9689 56.913C41.3869 56.314 36.8069 55.691 32.2299 55.044C28.8939 65.473 25.5129 75.892 22.0889 86.301C16.7279 85.52 11.3719 84.707 6.01894 83.862Z" stroke="url(#paint11_linear_236_297)"/>
<path d="M58.531 91.107C65.196 78.18 71.712 65.207 78.077 52.189C85.637 36.734 92.378 23.243 98.415 11.748C104.944 12.362 111.477 12.926 118.012 13.44C117.941 26.19 117.476 40.642 116.593 56.792C115.873 70.042 115.162 83.293 114.46 96.544C108.483 96.088 102.509 95.592 96.537 95.056C97.156 90.225 97.774 85.394 98.389 80.563C93.304 80.109 88.22 79.626 83.139 79.114C81.099 83.8 79.043 88.482 76.97 93.159C70.82 92.518 64.674 91.833 58.531 91.107ZM89.447 64.473C93.028 64.821 96.61 65.154 100.193 65.473C101.771 52.846 103.336 40.218 104.888 27.589C99.856 39.913 94.709 52.208 89.447 64.473Z" stroke="url(#paint12_linear_236_297)"/>
<path d="M148.434 99.888C140.527 99.483 134.545 95.948 130.575 89.359C126.599 82.769 125.04 74.018 125.801 63.134C126.435 54.05 128.485 45.815 131.878 38.409C135.271 31.004 139.747 25.195 145.296 20.949C150.846 16.705 156.878 14.733 163.476 15.015C168.337 15.223 172.57 16.596 176.208 19.148C175.026 25.078 173.831 31.007 172.622 36.935C170.164 34.729 167.213 33.558 163.749 33.413C158.114 33.177 153.402 35.968 149.537 41.818C145.675 47.668 143.471 54.734 142.999 63.041C142.307 75.027 146.167 81.281 154.586 81.683C157.996 81.844 161.359 81.087 164.654 79.411C163.377 85.488 162.086 91.563 160.78 97.636C156.878 99.357 152.755 100.111 148.434 99.89V99.888Z" stroke="url(#paint13_linear_236_297)"/>
<path d="M168.486 99.587C174.338 72.072 179.895 44.519 185.155 16.935C190.226 17.065 195.298 17.165 200.37 17.234C198.108 29.96 195.784 42.681 193.397 55.395C199.784 42.756 205.992 30.07 212.022 17.341C218.254 17.37 224.486 17.352 230.717 17.289C226.564 25.142 222.333 32.974 218.025 40.786C215.191 45.89 212.947 49.688 211.326 52.192C209.706 54.698 207.748 57.158 205.45 59.568C207.094 62.96 208.974 68.234 211.12 75.388C213.654 83.761 216.236 92.127 218.867 100.485C212.538 100.49 206.208 100.45 199.879 100.366C197.241 87.378 194.683 74.382 192.206 61.379C189.765 74.286 187.26 87.187 184.69 100.08C179.288 99.948 173.887 99.784 168.487 99.587H168.486Z" stroke="url(#paint14_linear_236_297)"/>
<path d="M223.682 79.159C224.628 73.189 225.561 67.218 226.482 61.246C236.317 61.182 246.151 61.007 255.983 60.723C255.197 66.714 254.397 72.704 253.585 78.694C243.619 78.96 233.65 79.115 223.682 79.159Z" stroke="url(#paint15_linear_236_297)"/>
<path d="M259.986 99.831C263.941 71.985 267.601 44.122 270.965 16.248C275.049 16.078 279.133 15.888 283.216 15.678C292.015 15.225 298.766 17.504 303.558 22.614C308.412 27.875 311.296 36.199 312.125 47.63C313.146 61.721 311 73.574 305.496 83.14C302.251 88.78 298.195 92.806 293.361 95.2C288.526 97.592 282.667 98.954 275.816 99.247C270.54 99.472 265.263 99.667 259.986 99.831ZM278.593 80.739C279.05 80.718 279.506 80.697 279.963 80.676C283.737 80.501 287.128 78.677 290.102 75.214C292.443 72.415 294.177 68.796 295.305 64.365C296.433 59.935 296.838 55.25 296.542 50.314C296.202 44.673 295.056 40.457 293.12 37.66C291.31 35.014 288.74 33.784 285.392 33.959C284.981 33.98 284.57 34.002 284.158 34.023C282.395 49.598 280.54 65.17 278.593 80.739Z" stroke="url(#paint16_linear_236_297)"/>
<path d="M311.434 97.257C315.581 83.319 319.573 69.362 323.411 55.39C327.97 38.801 332.091 24.295 335.892 11.879C342.421 11.272 348.947 10.614 355.469 9.90601C357.764 22.448 359.987 36.735 362.116 52.769C363.866 65.923 365.625 79.075 367.392 92.227C361.43 92.887 355.464 93.508 349.496 94.09C349.209 89.228 348.92 84.366 348.629 79.505C343.546 80.002 338.462 80.47 333.375 80.909C332.24 85.892 331.088 90.874 329.919 95.854C323.76 96.364 317.598 96.831 311.434 97.257ZM336.857 65.353C340.439 65.031 344.021 64.694 347.601 64.343C346.81 51.643 346.007 38.943 345.19 26.245C342.529 39.288 339.751 52.325 336.857 65.353Z" stroke="url(#paint17_linear_236_297)"/>
<path d="M380.663 90.691C381.081 82.022 381.471 73.354 381.834 64.687C378.559 55.049 375.776 45.304 373.457 35.462C371.363 26.503 369.29 17.54 367.239 8.57301C372.804 7.91601 378.366 7.22301 383.925 6.49301C386.083 20.025 388.254 33.555 390.436 47.084C393.515 32.86 396.439 18.628 399.208 4.39101C405.248 3.52301 411.284 2.61201 417.314 1.65601C414.607 11.701 411.804 21.741 408.905 31.772C405.007 45.205 401.281 55.439 397.892 62.477C397.61 71.19 397.299 79.905 396.961 88.621C391.532 89.343 386.1 90.032 380.665 90.689L380.663 90.691Z" stroke="url(#paint18_linear_236_297)"/>
</g>
<defs>
<linearGradient id="paint0_linear_236_297" x1="38.938" y1="100.223" x2="38.938" y2="12.579" gradientUnits="userSpaceOnUse">
<stop offset="0.295" stop-color="#0B258D"/>
<stop offset="0.575" stop-color="#599ACE"/>
<stop offset="0.78" stop-color="#87B6DB"/>
<stop offset="0.895" stop-color="#C2D9ED"/>
<stop offset="1" stop-color="white"/>
</linearGradient>
<linearGradient id="paint1_linear_236_297" x1="86.081" y1="106.41" x2="86.081" y2="20.546" gradientUnits="userSpaceOnUse">
<stop offset="0.3" stop-color="#0D188D"/>
<stop offset="0.65" stop-color="#599ACE"/>
<stop offset="0.795" stop-color="#87B6DB"/>
<stop offset="0.88" stop-color="#C2D9ED"/>
<stop offset="1" stop-color="white"/>
</linearGradient>
<linearGradient id="paint2_linear_236_297" x1="148.881" y1="109.761" x2="148.881" y2="23.827" gradientUnits="userSpaceOnUse">
<stop offset="0.245" stop-color="#101C97"/>
<stop offset="0.59" stop-color="#599ACE"/>
<stop offset="0.745" stop-color="#87B6DB"/>
<stop offset="0.91" stop-color="#C2D9ED"/>
<stop offset="1" stop-color="white"/>
</linearGradient>
<linearGradient id="paint3_linear_236_297" x1="197.65" y1="110.337" x2="197.65" y2="25.768" gradientUnits="userSpaceOnUse">
<stop offset="0.305" stop-color="#161FBA"/>
<stop offset="0.531" stop-color="#599ACE"/>
<stop offset="0.78" stop-color="#87B6DB"/>
<stop offset="0.915" stop-color="#C2D9ED"/>
<stop offset="1" stop-color="white"/>
</linearGradient>
<linearGradient id="paint4_linear_236_297" x1="237.755" y1="89.016" x2="237.755" y2="69.572" gradientUnits="userSpaceOnUse">
<stop offset="0.325" stop-color="#0A289C"/>
<stop offset="0.61" stop-color="#3785C4"/>
<stop offset="0.86" stop-color="#C2D9ED"/>
<stop offset="1" stop-color="white"/>
</linearGradient>
<linearGradient id="paint5_linear_236_297" x1="284.063" y1="109.716" x2="284.063" y2="24.498" gradientUnits="userSpaceOnUse">
<stop offset="0.212" stop-color="#0C40A0"/>
<stop offset="0.287" stop-color="#0D37BE"/>
<stop offset="0.397" stop-color="#3785C4"/>
<stop offset="0.531" stop-color="#599ACE"/>
<stop offset="0.683" stop-color="#87B6DB"/>
<stop offset="0.847" stop-color="#C2D9ED"/>
<stop offset="1" stop-color="white"/>
</linearGradient>
<linearGradient id="paint6_linear_236_297" x1="337.262" y1="107.193" x2="337.262" y2="18.768" gradientUnits="userSpaceOnUse">
<stop offset="0.235" stop-color="#06309A"/>
<stop offset="0.405" stop-color="#2379BE"/>
<stop offset="0.5" stop-color="#3785C4"/>
<stop offset="0.62" stop-color="#599ACE"/>
<stop offset="0.755" stop-color="#87B6DB"/>
<stop offset="0.847" stop-color="#C2D9ED"/>
<stop offset="1" stop-color="white"/>
</linearGradient>
<linearGradient id="paint7_linear_236_297" x1="390.262" y1="100.68" x2="390.262" y2="10.486" gradientUnits="userSpaceOnUse">
<stop offset="0.212" stop-color="#0137AD"/>
<stop offset="0.287" stop-color="#2359BE"/>
<stop offset="0.397" stop-color="#1836B1"/>
<stop offset="0.531" stop-color="#599ACE"/>
<stop offset="0.683" stop-color="#87B6DB"/>
<stop offset="0.847" stop-color="#C2D9ED"/>
<stop offset="1" stop-color="white"/>
</linearGradient>
<linearGradient id="paint8_linear_236_297" x1="40.9889" y1="90.9" x2="40.9889" y2="3.25601" gradientUnits="userSpaceOnUse">
<stop offset="0.413" stop-color="#BE1E2D"/>
<stop offset="1" stop-color="white"/>
</linearGradient>
<linearGradient id="paint9_linear_236_297" x1="88.136" y1="97.081" x2="88.136" y2="11.219" gradientUnits="userSpaceOnUse">
<stop offset="0.385" stop-color="#BE1E2D"/>
<stop offset="1" stop-color="white"/>
</linearGradient>
<linearGradient id="paint10_linear_236_297" x1="150.938" y1="100.426" x2="150.938" y2="14.489" gradientUnits="userSpaceOnUse">
<stop offset="0.413" stop-color="#BE1E2D"/>
<stop offset="1" stop-color="white"/>
</linearGradient>
<linearGradient id="paint11_linear_236_297" x1="211.333" y1="100.485" x2="211.333" y2="1.65701" gradientUnits="userSpaceOnUse">
<stop offset="0.413" stop-color="#BE1E2D"/>
<stop offset="1" stop-color="white"/>
</linearGradient>
<linearGradient id="paint12_linear_236_297" x1="211.333" y1="100.485" x2="211.333" y2="1.65699" gradientUnits="userSpaceOnUse">
<stop offset="0.413" stop-color="#BE1E2D"/>
<stop offset="1" stop-color="white"/>
</linearGradient>
<linearGradient id="paint13_linear_236_297" x1="211.333" y1="100.485" x2="211.333" y2="1.65698" gradientUnits="userSpaceOnUse">
<stop offset="0.413" stop-color="#BE1E2D"/>
<stop offset="1" stop-color="white"/>
</linearGradient>
<linearGradient id="paint14_linear_236_297" x1="211.333" y1="100.485" x2="211.333" y2="1.657" gradientUnits="userSpaceOnUse">
<stop offset="0.413" stop-color="#BE1E2D"/>
<stop offset="1" stop-color="white"/>
</linearGradient>
<linearGradient id="paint15_linear_236_297" x1="211.333" y1="100.485" x2="211.333" y2="1.65703" gradientUnits="userSpaceOnUse">
<stop offset="0.413" stop-color="#BE1E2D"/>
<stop offset="1" stop-color="white"/>
</linearGradient>
<linearGradient id="paint16_linear_236_297" x1="211.333" y1="100.485" x2="211.333" y2="1.65698" gradientUnits="userSpaceOnUse">
<stop offset="0.413" stop-color="#BE1E2D"/>
<stop offset="1" stop-color="white"/>
</linearGradient>
<linearGradient id="paint17_linear_236_297" x1="211.333" y1="100.485" x2="211.333" y2="1.657" gradientUnits="userSpaceOnUse">
<stop offset="0.413" stop-color="#BE1E2D"/>
<stop offset="1" stop-color="white"/>
</linearGradient>
<linearGradient id="paint18_linear_236_297" x1="211.333" y1="100.485" x2="211.333" y2="1.65701" gradientUnits="userSpaceOnUse">
<stop offset="0.413" stop-color="#BE1E2D"/>
<stop offset="1" stop-color="white"/>
</linearGradient>
<clipPath id="clip0_236_297">
<rect width="417.66" height="112.741" fill="white"/>
</clipPath>
</defs>
</svg>
